<svg xmlns="http://www.w3.org/2000/svg" width="207.233" height="72.451" viewBox="0 0 207.233 72.451">
  <g id="Layer_2" data-name="Layer 2" transform="translate(0 0)">
    <g id="Layer_1" data-name="Layer 1" transform="translate(0 0)">
      <g id="Group_8768" data-name="Group 8768" transform="translate(126.521)">
        <path id="Path_2114" data-name="Path 2114" d="M266.327,29.749c-1.2-9.321-11.233-15.354-20.322-12.9a16.411,16.411,0,0,0-12.312,15.991c0,2.535.065,5.07-.043,7.6a8.633,8.633,0,0,1-9.277,7.966H224.3a9.248,9.248,0,0,1-4.635-1.861,20.365,20.365,0,0,1-3.469,6.236c-.362.449-.333.652.152.956a16.1,16.1,0,0,0,7.909,2.513A16.454,16.454,0,0,0,241.5,40.627V32.7a8.644,8.644,0,0,1,17.287.043v7.032a8.64,8.64,0,0,1-8.691,8.611,8.279,8.279,0,0,1-1.034-.065,9.755,9.755,0,0,1-5.4-2.723,4.809,4.809,0,0,0-1.26-1.065,16.867,16.867,0,0,1-3.331,6.446c-.369.449-.29.724.116,1.036,4.816,4.07,10.284,5.345,16.252,3.3s9.589-6.388,10.863-12.609C266.342,42.713,267.356,37.81,266.327,29.749Z" transform="translate(-186.074 -4.482)" fill="#f7941d"/>
        <path id="Path_2115" data-name="Path 2115" d="M179.943.053a3.773,3.773,0,0,1,2.318.97,4.2,4.2,0,0,1,1.021,1.543c.666,1.716.471,4.823-1.448,6-.362.217-.3.406,0,.666.507.507.992,1.036,1.637,1.716-1.2-.051-2.267.348-3.027-.724a2.1,2.1,0,0,0-1.76-.855c-3.353-.261-4.345-3.1-3.875-5.866A3.744,3.744,0,0,1,177.089.343a4.765,4.765,0,0,1,2.173-.348Zm-.8,7.843a2.209,2.209,0,0,0,2.136-1.347,4.439,4.439,0,0,0,0-3.773,2.252,2.252,0,0,0-2.107-1.333,2.173,2.173,0,0,0-2.021,1.195,4.2,4.2,0,0,0-.043,4.056,2.173,2.173,0,0,0,2.035,1.224Z" transform="translate(-174.698 0.018)" fill="#148285"/>
        <path id="Path_2116" data-name="Path 2116" d="M174.721,37.536a30.006,30.006,0,0,1,.724-8.879,17.664,17.664,0,0,1,5.106-8.242c.992-.891,2.173-1.543,3.5-.92a6.127,6.127,0,0,1,3.4,3.817c.253.826-.29,1.347-.884,1.8a10.2,10.2,0,0,0-3.679,5.555,13.76,13.76,0,0,0-.406,3.563v6.8a8.611,8.611,0,0,0,17.063,1.832,10.7,10.7,0,0,0,.21-2.173c0-2.665-.072-5.33.058-7.966a16.409,16.409,0,0,1,25.08-12.573c.471.29.645.456.2.978a19.112,19.112,0,0,0-3.252,5.649c-.181.485-.3.536-.724.246a8.582,8.582,0,0,0-13.29,5.2,9.161,9.161,0,0,0-.246,2.216c0,2.564.065,5.12,0,7.677a16.42,16.42,0,0,1-32.416,2.622c-.072-.326-.138-.652-.188-.985a8.808,8.808,0,0,1-.174-1.506C174.7,40.68,174.714,39.108,174.721,37.536Z" transform="translate(-174.698 -4.854)" fill="#f7941d"/>
        <path id="Path_2117" data-name="Path 2117" d="M240.6,73.229a17.859,17.859,0,0,1-.594,5.873,14.12,14.12,0,0,1-10.393,9.777,18.924,18.924,0,0,1-11.407-.246A11.79,11.79,0,0,1,213.864,86a2.967,2.967,0,0,1-.507-4.208,13.76,13.76,0,0,1,2.339-2.607c1.007-.8,1.448-.811,2.441.072a9.357,9.357,0,0,0,4.468,2.339,8.488,8.488,0,0,0,9.929-6.735.658.658,0,0,1,.051-.311,27.224,27.224,0,0,0,.225-4.541.985.985,0,0,1,.608-1.072,10.1,10.1,0,0,0,2.9-2.173c.319-.34.529-.435.862,0a8.177,8.177,0,0,0,2.991,2.47.724.724,0,0,1,.427.768C240.595,70.9,240.6,71.831,240.6,73.229Z" transform="translate(-185.176 -18.32)" fill="#148285"/>
        <path id="Path_2118" data-name="Path 2118" d="M251.3,5.674V2.958a2.636,2.636,0,0,1,2.455-2.81h.282c1.941-.072,3.889,0,5.837,0,.435,0,.529.2.529.579V6.4a2.585,2.585,0,0,1-2.383,2.8h0c-2.086.239-4.2.051-6.3.087-.413,0-.384-.275-.384-.543Z" transform="translate(-195.82 -0.019)" fill="#148285"/>
        <path id="Path_2119" data-name="Path 2119" d="M275.029,3.68V6.309a2.619,2.619,0,0,1-2.578,2.9c-2.013.116-4.041.043-6.062.072-.355,0-.471-.159-.456-.485.051-2.1-.13-4.2.1-6.3A2.441,2.441,0,0,1,268.149.2c2.173-.232,4.309-.051,6.46-.087.449,0,.413.311.413.608Z" transform="translate(-199.853 -0.01)" fill="#148285"/>
        <path id="Path_2120" data-name="Path 2120" d="M198.045,6.941c.42-1.97.869-3.933,1.246-5.917.13-.666.362-.913,1.079-.891,1.637.058,1.651,0,2.013,1.6s.724,3.375,1.123,5.07c.319,0,.275-.275.319-.456q.674-2.839,1.354-5.663c.116-.492.833-.724,1.564-.521.579.174.21.572.145.84-.652,2.557-1.34,5.07-1.984,7.648-.123.492-.348.616-.818.616-1.716,0-1.724,0-2.107-1.673s-.724-3.252-1.137-5.026a2.607,2.607,0,0,0-.507,1.448c-.369,1.55-.724,3.114-1.021,4.671-.087.413-.239.572-.681.594-1.868.072-1.861.08-2.339-1.745-.594-2.267-1.173-4.526-1.8-6.786-.145-.507,0-.579.442-.594,1.362-.043,1.362-.065,1.695,1.318.435,1.832.855,3.665,1.282,5.5Z" transform="translate(-180.141 -0.011)" fill="#148285"/>
        <path id="Path_2121" data-name="Path 2121" d="M220.217,9.254c-.724.253-1.057-.261-1.195-.956-.188-.956-.724-1.188-1.673-1.137h-.4c-1.4,0-2.383.094-2.6,1.666a.449.449,0,0,1-.485.435h-.08a3.824,3.824,0,0,1-1.4-.1c-.116-.051,0-.29.072-.435,1.086-2.709,2.086-5.417,3.129-8.119a.63.63,0,0,1,.645-.464c1.658-.116,1.658-.116,2.231,1.419q1.318,3.339,2.607,6.685C221.456,9.254,221.449,9.254,220.217,9.254Zm-3.411-7.192c-.268.724-.471,1.282-.659,1.832-.674,1.941-.674,1.941,1.448,1.811h.08c.333,0,.427-.1.311-.42-.362-1.007-.724-2.021-1.144-3.216Z" transform="translate(-185.076 -0.014)" fill="#148285"/>
        <path id="Path_2122" data-name="Path 2122" d="M189.7,4.795V.8c0-.5.152-.652.637-.645,1.543,0,1.231-.072,1.238,1.224V8.568c0,.934-.558.674-1.043.724s-.9,0-.862-.724C189.749,7.286,189.7,6.04,189.7,4.795Z" transform="translate(-178.826 -0.031)" fill="#148285"/>
      </g>
      <g id="Group_8770" data-name="Group 8770" transform="translate(0 47.298)" style="mix-blend-mode: normal;isolation: isolate">
        <path id="Path_2171" data-name="Path 2171" d="M12.435,80.143a4.57,4.57,0,0,1,1.144-3.382,4.845,4.845,0,0,1,3.527-1.137h3.013v4.657a6.264,6.264,0,0,0,.072,1.094,1.448,1.448,0,0,0,.232.623.681.681,0,0,0,.377.282,1.9,1.9,0,0,0,.529.072h1.123a1.159,1.159,0,0,1,.616.13.536.536,0,0,1,.2.464v.782a.782.782,0,0,1-.065.348.464.464,0,0,1-.174.2.724.724,0,0,1-.261.094,2.171,2.171,0,0,1-.319,0H21a3.36,3.36,0,0,1-1.072-.174,2.376,2.376,0,0,1-.927-.55,2.767,2.767,0,0,1-.659-1.014,4.2,4.2,0,0,1-.239-1.521V77.565H17.7a7.474,7.474,0,0,0-1.34.1,2.361,2.361,0,0,0-1.007.406,1.89,1.89,0,0,0-.637.855,3.954,3.954,0,0,0-.225,1.448v3.339a4.809,4.809,0,0,1-.464,2.057,5.5,5.5,0,0,1-1.362,1.8,6.931,6.931,0,0,1-2.173,1.267,8.292,8.292,0,0,1-2.9.478A10.7,10.7,0,0,1,4.852,89a7.836,7.836,0,0,1-2.006-.8,5.562,5.562,0,0,1-1.4-1.159,6.177,6.177,0,0,1-.869-1.311,5.939,5.939,0,0,1-.449-1.3A5.627,5.627,0,0,1,0,83.308a7.967,7.967,0,0,1,.094-1.246A8.205,8.205,0,0,1,.369,80.9a6.627,6.627,0,0,1,.42-1.028,6.091,6.091,0,0,1,.529-.833l1.68.92a3.737,3.737,0,0,0-.391.674,6.518,6.518,0,0,0-.3.8,5.837,5.837,0,0,0-.2.855,4.925,4.925,0,0,0-.072.847,4.534,4.534,0,0,0,.087.84,3.541,3.541,0,0,0,.311.905,3.759,3.759,0,0,0,.623.876,3.679,3.679,0,0,0,1.007.724,6.214,6.214,0,0,0,1.448.514,9.334,9.334,0,0,0,2.028.188,6.851,6.851,0,0,0,2.05-.275,5,5,0,0,0,1.528-.724,3.389,3.389,0,0,0,.963-1.057,2.4,2.4,0,0,0,.333-1.217ZM4.809,92.093a1.137,1.137,0,0,1,.094-.471,1.448,1.448,0,0,1,.253-.384,1.282,1.282,0,0,1,.384-.261,1.137,1.137,0,0,1,.471-.094,1.166,1.166,0,0,1,.471.094,1.238,1.238,0,0,1,.645.645,1.267,1.267,0,0,1,.094.471,1.3,1.3,0,0,1-.094.471,1.253,1.253,0,0,1-.261.377,1.267,1.267,0,0,1-.384.253,1.166,1.166,0,0,1-.471.094,1.137,1.137,0,0,1-.855-.34,1.159,1.159,0,0,1-.348-.855Zm3.223,0a1.275,1.275,0,0,1,.355-.855,1.166,1.166,0,0,1,.377-.261,1.224,1.224,0,0,1,.941,0,1.238,1.238,0,0,1,.645.645,1.137,1.137,0,0,1,.094.471,1.166,1.166,0,0,1-.094.471,1.253,1.253,0,0,1-.261.377,1.267,1.267,0,0,1-.384.253,1.137,1.137,0,0,1-.471.094,1.173,1.173,0,0,1-1.2-1.195Z" transform="translate(0 -68.136)" fill="#148285"/>
        <path id="Path_2172" data-name="Path 2172" d="M35.76,81.7a3.708,3.708,0,0,0,1.2.521,6.561,6.561,0,0,0,1.658.181h.094a1.152,1.152,0,0,1,.608.13.514.514,0,0,1,.2.464v.782a.913.913,0,0,1-.058.348.464.464,0,0,1-.174.2.8.8,0,0,1-.261.094,2.28,2.28,0,0,1-.319,0H38.6a5.431,5.431,0,0,1-1.955-.3,4.852,4.852,0,0,1-1.333-.775,2.535,2.535,0,0,1-.724.768,2.129,2.129,0,0,1-1.195.311h-2.7a1.079,1.079,0,0,1-.608-.138.507.507,0,0,1-.2-.463v-.8a.941.941,0,0,1,.058-.348.471.471,0,0,1,.181-.2.724.724,0,0,1,.261-.087,2.1,2.1,0,0,1,.311,0h2.289a.659.659,0,0,0,.572-.319,1.8,1.8,0,0,0,.21-.963V75.67h2Zm-2.238,6.134a1.137,1.137,0,0,1,.094-.471,1.181,1.181,0,0,1,.253-.384,1.035,1.035,0,0,1,.377-.261,1.173,1.173,0,0,1,.471-.1,1.144,1.144,0,0,1,.471.1,1.065,1.065,0,0,1,.384.261,1.2,1.2,0,0,1,0,1.7,1.448,1.448,0,0,1-.384.253,1.137,1.137,0,0,1-.471.094,1.159,1.159,0,0,1-.855-.348,1.137,1.137,0,0,1-.34-.884Z" transform="translate(-8.239 -68.153)" fill="#148285"/>
        <path id="Path_2173" data-name="Path 2173" d="M41.787,84.4a1.079,1.079,0,0,1-.608-.138A.507.507,0,0,1,41,83.8v-.782a.941.941,0,0,1,.058-.348.471.471,0,0,1,.181-.2.724.724,0,0,1,.261-.087,2.1,2.1,0,0,1,.311,0h3.723V75.65h2.042V84.4Zm1.448,3.4a1.144,1.144,0,0,1,.1-.471,1.079,1.079,0,0,1,.254-.384.978.978,0,0,1,.377-.261,1.144,1.144,0,0,1,.471-.1,1.173,1.173,0,0,1,.471.1,1.065,1.065,0,0,1,.384.261,1.2,1.2,0,0,1,0,1.7,1.448,1.448,0,0,1-.384.253,1.224,1.224,0,0,1-1.325-.253,1.144,1.144,0,0,1-.369-.847Zm3.23,0a1.137,1.137,0,0,1,.094-.471,1.18,1.18,0,0,1,.253-.384,1.036,1.036,0,0,1,.377-.261,1.173,1.173,0,0,1,.471-.1,1.144,1.144,0,0,1,.471.1,1.065,1.065,0,0,1,.384.261,1.2,1.2,0,0,1,0,1.7,1.448,1.448,0,0,1-.384.253,1.137,1.137,0,0,1-.471.094,1.159,1.159,0,0,1-.869-.348,1.137,1.137,0,0,1-.348-.847Z" transform="translate(-11.305 -68.147)" fill="#148285"/>
        <path id="Path_2174" data-name="Path 2174" d="M54.05,87.18a7.09,7.09,0,0,0,1.926-.478,2.506,2.506,0,0,0,1.579-2.013,9.683,9.683,0,0,0,.116-1.543v-7.5h2.035v6.714h2.658a1.159,1.159,0,0,1,.616.13.536.536,0,0,1,.2.464v.782a.782.782,0,0,1-.065.348.463.463,0,0,1-.174.2.8.8,0,0,1-.261.094,2.172,2.172,0,0,1-.319,0H59.59a6.583,6.583,0,0,1-.572,2.006,4.186,4.186,0,0,1-1.057,1.376,4.773,4.773,0,0,1-1.586.862,11.942,11.942,0,0,1-2.122.485Z" transform="translate(-14.906 -68.147)" fill="#148285"/>
        <path id="Path_2175" data-name="Path 2175" d="M67.357,75.29c.449-.13.9-.246,1.354-.348a7.134,7.134,0,0,1,1.543-.152,4.135,4.135,0,0,1,1.55.275,3.31,3.31,0,0,1,1.152.724,3.983,3.983,0,0,1,.782,1.159,5.866,5.866,0,0,1,.42,1.448c.08.478.152.941.232,1.391a7.162,7.162,0,0,0,.282,1.173,2.506,2.506,0,0,0,.442.811.876.876,0,0,0,.724.3h1.05a1.159,1.159,0,0,1,.616.13.536.536,0,0,1,.2.464v.782a.782.782,0,0,1-.065.348.464.464,0,0,1-.174.2.8.8,0,0,1-.261.094,2.171,2.171,0,0,1-.319,0H65.3a1.079,1.079,0,0,1-.608-.138.507.507,0,0,1-.2-.464v-.71a.811.811,0,0,1,.058-.348.507.507,0,0,1,.174-.2.789.789,0,0,1,.261-.087,2.283,2.283,0,0,1,.319,0h7.988A1.774,1.774,0,0,1,72.9,81.5a5.366,5.366,0,0,1-.253-1.115c-.058-.449-.138-.891-.232-1.325a3.853,3.853,0,0,0-.456-1.217,2.339,2.339,0,0,0-.847-.855,2.781,2.781,0,0,0-1.448-.319,5.637,5.637,0,0,0-.565,0l-.645.1-.623.145a3.622,3.622,0,0,0-.5.167ZM69.24,87.558a1.137,1.137,0,0,1,.094-.471,1.181,1.181,0,0,1,.253-.384,1.036,1.036,0,0,1,.377-.261,1.173,1.173,0,0,1,.471-.1,1.144,1.144,0,0,1,.471.1,1.065,1.065,0,0,1,.384.261,1.2,1.2,0,0,1,.261.384,1.13,1.13,0,0,1,0,.934,1.2,1.2,0,0,1-.261.384,1.448,1.448,0,0,1-.384.253,1.137,1.137,0,0,1-.471.094,1.173,1.173,0,0,1-1.195-1.195Z" transform="translate(-17.784 -67.91)" fill="#148285"/>
        <path id="Path_2176" data-name="Path 2176" d="M81.25,82.38a1.079,1.079,0,0,1-.608-.138.507.507,0,0,1-.2-.463V81a.942.942,0,0,1,.058-.348.471.471,0,0,1,.181-.2.724.724,0,0,1,.253-.087,2.28,2.28,0,0,1,.319,0h3.723V73.631h2.042V82.38Zm1.709-12.84a1.268,1.268,0,0,1,.094-.471,1.282,1.282,0,0,1,.261-.384,1.166,1.166,0,0,1,.377-.261,1.137,1.137,0,0,1,.471-.094,1.166,1.166,0,0,1,.471.094,1.238,1.238,0,0,1,.645.645,1.224,1.224,0,0,1,0,.941,1.166,1.166,0,0,1-.261.377,1.144,1.144,0,0,1-.384.253,1.173,1.173,0,0,1-.471.1,1.188,1.188,0,0,1-1.2-1.2Zm3.23,0a1.137,1.137,0,0,1,.094-.471,1.268,1.268,0,0,1,.253-.384,1.159,1.159,0,0,1,.826-.326,1.137,1.137,0,0,1,.471.094,1.238,1.238,0,0,1,.645.645,1.224,1.224,0,0,1,0,.941,1.166,1.166,0,0,1-.261.377,1.275,1.275,0,0,1-.855.355,1.173,1.173,0,0,1-1.173-1.231Z" transform="translate(-22.182 -66.128)" fill="#148285"/>
        <path id="Path_2177" data-name="Path 2177" d="M100.62,87.18a7.083,7.083,0,0,0,1.934-.478,2.506,2.506,0,0,0,1.579-2.013,9.742,9.742,0,0,0,.109-1.535v-7.5h2.042v6.924a10.508,10.508,0,0,1-.333,2.9,4.794,4.794,0,0,1-.992,1.912,4.418,4.418,0,0,1-1.695,1.159,10.487,10.487,0,0,1-2.433.6Z" transform="translate(-27.748 -68.147)" fill="#148285"/>
        <path id="Path_2178" data-name="Path 2178" d="M113.75,65.29h2.035V81.549H113.75Z" transform="translate(-31.369 -65.29)" fill="#148285"/>
        <path id="Path_2179" data-name="Path 2179" d="M120.48,83.938V81.9h3.86a7.243,7.243,0,0,0,1.318-.1,2.339,2.339,0,0,0,.811-.282.992.992,0,0,0,.406-.449,1.492,1.492,0,0,0,.116-.608,2.9,2.9,0,0,0-.326-1.26,6.519,6.519,0,0,0-.847-1.318,12.943,12.943,0,0,0-1.18-1.289c-.442-.413-.884-.8-1.325-1.166l1.506-1.448a17.764,17.764,0,0,1,1.448,1.412,13.666,13.666,0,0,1,1.289,1.579,8.96,8.96,0,0,1,.927,1.68,4.555,4.555,0,0,1,.348,1.7,4.619,4.619,0,0,1-.065.782,3.621,3.621,0,0,0,1.253.6,6.757,6.757,0,0,0,1.745.2h.087a1.159,1.159,0,0,1,.616.13.536.536,0,0,1,.2.464v.782a.782.782,0,0,1-.065.348.464.464,0,0,1-.174.2.724.724,0,0,1-.261.094,2.174,2.174,0,0,1-.319,0h-.109a6.794,6.794,0,0,1-1.209-.1,5.584,5.584,0,0,1-.985-.3,3.983,3.983,0,0,1-.775-.435,5.069,5.069,0,0,1-.63-.529,3.3,3.3,0,0,1-1.362.992,5.96,5.96,0,0,1-2.173.355Z" transform="translate(-33.225 -67.687)" fill="#148285"/>
        <path id="Path_2180" data-name="Path 2180" d="M143.958,84.078a6.519,6.519,0,0,1-.92-.065,5.359,5.359,0,0,1-.9-.2,4.867,4.867,0,0,1-.847-.355,3.2,3.2,0,0,1-.724-.514,2.535,2.535,0,0,1-.775.8,2.093,2.093,0,0,1-1.231.333H135.89a1.079,1.079,0,0,1-.608-.138.507.507,0,0,1-.2-.464v-.782a.941.941,0,0,1,.058-.348.471.471,0,0,1,.181-.2.724.724,0,0,1,.261-.087,2.1,2.1,0,0,1,.311,0h2.252a.652.652,0,0,0,.572-.319,1.8,1.8,0,0,0,.21-.963V77.524h2.035v3.715a3.824,3.824,0,0,0,1.347.623,7.481,7.481,0,0,0,1.666.181q.254-.738.579-1.448a13.989,13.989,0,0,1,.869-1.651,14.338,14.338,0,0,1,1.188-1.666,9.292,9.292,0,0,1,1.448-1.448,7.293,7.293,0,0,1,1.738-.97,5.439,5.439,0,0,1,2.013-.369,5.272,5.272,0,0,1,2.223.427,4.2,4.2,0,0,1,1.521,1.188,4.874,4.874,0,0,1,.869,1.782,8.184,8.184,0,0,1,.282,2.173v3.976Zm10.7-3.744a6.062,6.062,0,0,0-.239-1.84,3.289,3.289,0,0,0-.659-1.18,2.347,2.347,0,0,0-.985-.63,3.722,3.722,0,0,0-1.217-.188,3.882,3.882,0,0,0-1.347.239,5.07,5.07,0,0,0-1.209.666,6.517,6.517,0,0,0-1.043.963,9.554,9.554,0,0,0-.869,1.166,10.087,10.087,0,0,0-.666,1.267,8.587,8.587,0,0,0-.442,1.246h8.691Z" transform="translate(-37.25 -67.826)" fill="#148285"/>
        <path id="Path_2181" data-name="Path 2181" d="M172.064,84.214a1.448,1.448,0,0,0-.275-.051,3.259,3.259,0,0,0-.391,0,1.5,1.5,0,0,0-.8.2.674.674,0,0,0-.319.645,1.072,1.072,0,0,0,.406.811,1.659,1.659,0,0,0,.514.282,2.513,2.513,0,0,0,.724.1h.326v.956H168.74v-.978h1.289a1.557,1.557,0,0,1-.232-.188,1.834,1.834,0,0,1-.232-.311,1.782,1.782,0,0,1-.2-.427,1.724,1.724,0,0,1-.08-.529,1.448,1.448,0,0,1,.123-.572,1.246,1.246,0,0,1,.362-.492,1.875,1.875,0,0,1,.63-.348,2.752,2.752,0,0,1,.913-.123h.413a4.267,4.267,0,0,1,.478.058ZM169.718,65.29h2.042V81.549h-2.042Z" transform="translate(-46.534 -65.29)" fill="#148285"/>
      </g>
    </g>
  </g>
</svg>
