<?xml version="1.0" encoding="UTF-8" standalone="no"?>
<!DOCTYPE svg PUBLIC "-//W3C//DTD SVG 1.1//EN" "http://www.w3.org/Graphics/SVG/1.1/DTD/svg11.dtd">
<svg xmlns="http://www.w3.org/2000/svg">
<metadata>Generated by IcoMoon</metadata>
<defs>
<font id="takamol-dashboard" horiz-adv-x="1024">
<font-face units-per-em="1024" ascent="960" descent="-64"/>
<missing-glyph horiz-adv-x="1024"/>
<glyph unicode=" " horiz-adv-x="512" d=""/>
<glyph unicode="" glyph-name="export" horiz-adv-x="796" d="M408.264 865.742l-81.625-87.436c-3.982-4.267-10.456-4.267-14.438 0s-3.982 11.203 0 15.469l99.065 106.12c1.92 2.057 4.513 3.216 7.229 3.216 0.307 0 0.612-0.015 0.916-0.044 0.364 0.029 0.733 0.044 1.106 0.044 6.69 0 12.133-4.795 12.251-10.743l91.981-98.571c3.982-4.267 3.982-11.203 0-15.469-2.022-2.144-4.636-3.216-7.25-3.216s-5.228 1.072-7.229 3.195l-77.5 83.054v-236.961c0-6.061-5.489-10.94-12.253-10.94s-12.253 4.901-12.253 10.94v241.343zM89.706 538.609v-341.894l323.080-168.985v341.916l-323.080 168.964zM64.825 559.162c0.151 4.171 2.467 7.946 6.053 9.833l277.409 145.083c5.424 2.826 12.013 0.551 14.736-5.146 2.701-5.675 0.505-12.567-4.919-15.416l-257.754-134.768 323.416-169.16 323.416 169.16-254.306 133.022c-5.424 2.849-7.62 9.741-4.919 15.416 2.745 5.675 9.333 7.926 14.736 5.146l271.798-142.16c6.252-0.607 11.13-5.493 11.13-11.424v-367.59c0-5.971-4.887-10.851-11.185-11.43l-339.207-177.42c-2.268-2.819-5.904-4.64-9.999-4.64-0.261 0-0.52 0.007-0.777 0.022-0.229-0.015-0.458-0.022-0.687-0.022-1.669 0-3.36 0.414-4.919 1.218l-347.969 181.98c-4.021 2.112-6.269 6.447-6.061 10.86v367.023c0 0.138 0.003 0.276 0.008 0.413zM437.674 371.201v-341.916l323.058 168.973v341.916l-323.058-168.973z"/>
<glyph unicode="" glyph-name="right_arrow" horiz-adv-x="1396" d="M891.515 883.257c-18.036 18.667-48.055 18.667-66.722 0-18.036-18.036-18.036-48.055 0-66.049l338.317-338.317h-1116.401c-26.024-0.042-46.709-20.727-46.709-46.751s20.685-47.382 46.709-47.382h1116.401l-338.317-337.687c-18.036-18.667-18.036-48.727 0-66.722 18.667-18.667 48.728-18.667 66.722 0l418.409 418.409c18.667 18.036 18.667 48.055 0 66.049l-418.409 418.451z"/>
<glyph unicode="" glyph-name="hamburger" horiz-adv-x="1472" d="M46 832h1380c25.392 0 46 28.672 46 64s-20.608 64-46 64h-1380c-25.392 0-46-28.672-46-64s20.608-64 46-64zM1426 512h-1380c-25.392 0-46-28.672-46-64s20.608-64 46-64h1380c25.392 0 46 28.672 46 64s-20.608 64-46 64zM1426 64h-1380c-25.392 0-46-28.672-46-64s20.608-64 46-64h1380c25.392 0 46 28.672 46 64s-20.608 64-46 64z"/>
<glyph unicode="" glyph-name="down_arrow" horiz-adv-x="1536" d="M808.922 38.4c7.208 0 14.158 3.275 19.564 9.528l631.713 756.592c10.297 12.506 10.039 32.455-0.772 44.365s-28.059 11.612-38.356-0.893l-631.971-756.294c-10.297-12.506-10.039-32.455 0.772-44.365 5.406-5.955 12.356-8.933 19.049-8.933zM761.469 38.4c6.693 0 13.643 2.978 18.792 8.933 10.812 11.91 11.069 31.86 0.772 44.365l-631.971 756.294c-10.297 12.506-27.544 12.803-38.356 0.893s-11.069-31.86-0.772-44.365l631.971-756.294c5.406-6.551 12.356-9.826 19.564-9.826z"/>
<glyph unicode="" glyph-name="close" horiz-adv-x="967" d="M957.474 54.534l-867.384 867.384c-15.96 15.96-46.934 10.891-69.139-11.314s-27.274-53.179-11.314-69.139l867.384-867.384c15.96-15.96 46.934-10.891 69.139 11.314s27.274 53.179 11.314 69.139zM877.021 921.919l-867.384-867.384c-15.96-15.96-10.891-46.934 11.314-69.139s53.179-27.274 69.139-11.314l867.384 867.384c15.96 15.96 10.891 46.934-11.314 69.139s-53.179 27.274-69.139 11.314z"/>
<glyph unicode="" glyph-name="thick" horiz-adv-x="1516" d="M1496.827 942.227c-24.861 23.697-65.245 23.697-90.107 0l-901.573-860.195-396.394 375.339c-24.861 23.697-65.245 23.697-90.107 0s-24.861-62.062 0-85.698l441.637-418.127c24.609-23.394 65.561-23.394 90.17 0l946.374 902.983c24.924 23.637 24.924 62.062 0 85.698-24.861 23.697 24.924-23.637 0 0z"/>
<glyph unicode="" glyph-name="unlocked" d="M815.407 578.598v106.439c0 151.609-136.116 274.963-303.407 274.963s-303.407-123.354-303.407-274.963c0-10.487 8.476-18.963 18.963-18.963s18.963 8.476 18.963 18.963c0 130.712 119.087 237.037 265.481 237.037s265.481-106.325 265.481-237.037v-104.296h-545.583c-75.586 0-137.083-61.497-137.083-137.083v-370.574c0-75.586 61.497-137.083 137.083-137.083h560.204c75.586 0 137.083 61.497 137.083 137.083v370.574c0 67.622-49.285 123.828-113.778 134.94zM891.259 73.083c0-54.67-44.487-99.157-99.157-99.157h-560.204c-54.67 0-99.157 44.487-99.157 99.157v370.574c0 54.67 44.487 99.157 99.157 99.157h560.204c54.67 0 99.157-44.487 99.157-99.157v-370.574zM512 429.037c-41.832 0-75.852-34.020-75.852-75.852v-113.778c0-41.832 34.020-75.852 75.852-75.852s75.852 34.020 75.852 75.852v113.778c0 41.832-34.020 75.852-75.852 75.852zM549.926 239.407c0-20.916-17.010-37.926-37.926-37.926s-37.926 17.010-37.926 37.926v113.778c0 20.916 17.010 37.926 37.926 37.926s37.926-17.010 37.926-37.926v-113.778z"/>
<glyph unicode="" glyph-name="raport" horiz-adv-x="811" d="M595.39 938.667h-480.966v-136.533h-93.091v-844.8h674.909v136.533h93.091v702.578l-193.943 142.222zM600.487 906.502l144.244-105.791h-145.129l0.884 105.791zM672.97 116.622v-136.533h-628.364v799.289h439.575l-1.117-137.956h189.905v-524.8zM506.512 664.178l0.873 105.791 144.256-105.791h-145.129zM766.061 116.622h-69.818v543.289l-193.943 142.222h-364.602v113.778h439.575l-1.117-137.956h189.905v-661.333z"/>
<glyph unicode="" glyph-name="question" d="M512.061-64v20.427l-0.061-20.427c-282.326 0-512 229.664-512 511.99s229.674 512.010 512 512.010c282.326 0 512-229.685 512-512.010s-229.654-511.99-511.939-511.99zM512 919.145c-259.794 0-471.145-211.361-471.145-471.156s211.351-471.135 471.145-471.135h0.061c259.764 0 471.084 211.341 471.084 471.135s-211.351 471.156-471.145 471.156zM507.582 347.723c-11.011 0-19.948 9.223-19.948 20.587v100.425c0 11.364 8.937 20.587 19.948 20.587 52.563 0 95.322 44.119 95.322 98.367 0 54.258-42.759 98.408-95.322 98.408s-95.322-44.15-95.322-98.408c0-11.364-8.937-20.587-19.948-20.587s-19.948 9.223-19.948 20.587c0 76.966 60.652 139.583 135.218 139.583s135.218-62.617 135.218-139.583c0-69.956-50.129-128.043-115.27-138.028v-81.351c0-11.364-8.937-20.587-19.948-20.587zM541.177 222.743c0-21.58-16.951-39.075-37.861-39.075s-37.861 17.494-37.861 39.075c0 21.58 16.951 39.075 37.861 39.075s37.861-17.494 37.861-39.075z"/>
<glyph unicode="" glyph-name="avatar" d="M508.289 408.24c1.060 0 2.121 0 3.393 0 0.424 0 0.848 0 1.272 0 0.636 0 1.484 0 2.121 0 62.131 1.060 112.388 22.902 149.497 64.676 81.64 92.031 68.069 249.797 66.584 264.853-5.301 113.024-58.738 167.097-102.845 192.331-32.868 18.873-71.25 29.051-114.084 29.899h-1.484c-0.212 0-0.636 0-0.848 0h-1.272c-23.538 0-69.765-3.817-114.084-29.051-44.531-25.234-98.816-79.308-104.118-193.18-1.484-15.056-15.056-172.823 66.584-264.853 36.897-41.774 87.153-63.616 149.285-64.676zM349.038 732.468c0 0.636 0.212 1.272 0.212 1.696 6.998 152.041 114.932 168.369 161.16 168.369h0.848c0.424 0 1.060 0 1.696 0 57.254-1.272 154.586-24.598 161.16-168.369 0-0.636 0-1.272 0.212-1.696 0.212-1.484 15.056-145.68-52.377-221.595-26.719-30.111-62.343-44.955-109.207-45.379-0.424 0-0.636 0-1.060 0v0c-0.424 0-0.636 0-1.060 0-46.651 0.424-82.488 15.268-108.995 45.379-67.221 75.491-52.801 220.322-52.589 221.595zM947.449 146.568c0 0.212 0 0.424 0 0.636 0 1.696-0.212 3.393-0.212 5.301-1.272 41.986-4.029 140.166-96.060 171.55-0.636 0.212-1.484 0.424-2.121 0.636-95.636 24.386-175.155 79.52-176.003 80.156-12.935 9.118-30.748 5.937-39.866-6.998s-5.937-30.748 6.998-39.866c3.605-2.545 88.002-61.283 193.604-88.426 49.408-17.6 54.922-70.401 56.406-118.749 0-1.908 0-3.605 0.212-5.301 0.212-19.085-1.060-48.56-4.453-65.524-34.352-19.509-169.006-86.941-373.848-86.941-203.994 0-339.496 67.645-374.060 87.153-3.393 16.964-4.877 46.439-4.453 65.524 0 1.696 0.212 3.393 0.212 5.301 1.484 48.348 6.998 101.149 56.406 118.749 105.602 27.143 189.999 86.093 193.604 88.426 12.935 9.118 16.116 26.931 6.998 39.866s-26.931 16.116-39.866 6.998c-0.848-0.636-79.944-55.77-176.003-80.156-0.848-0.212-1.484-0.424-2.121-0.636-92.031-31.596-94.787-129.776-96.060-171.55 0-1.908 0-3.605-0.212-5.301 0-0.212 0-0.424 0-0.636-0.212-11.027-0.424-67.645 10.815-96.060 2.121-5.513 5.937-10.179 11.027-13.359 6.362-4.241 158.827-101.361 413.926-101.361s407.564 97.332 413.926 101.361c4.877 3.181 8.906 7.846 11.027 13.359 10.603 28.203 10.391 84.821 10.179 95.848z"/>
<glyph unicode="" glyph-name="arrow" horiz-adv-x="1210" d="M544.784 481.096v0l-464.492 464.818c-29.537 30.706-81.438 7.537-80.273-34.148v-927.822c-1.118-41.499 50.409-64.017 79.9-34.521l464.818 465.19c18.403 18.377 18.403 48.152 0.047 66.482v0zM93.43 95.88v703.996l351.747-351.998-351.747-351.998zM1196.455 481.096v0 0l-464.521 464.818c-29.539 30.706-81.443 7.537-80.278-34.148v-927.822c-1.118-41.499 50.412-64.017 79.905-34.521l464.847 465.19c18.357 18.377 18.357 48.152 0.047 66.482zM745.072 95.88v703.996l351.769-351.998-351.769-351.998z"/>
<glyph unicode="" glyph-name="bin" horiz-adv-x="748" d="M355.768 704h36.771v-645.565h-36.771v645.565zM542.252 704h-38.347l-28.104-645.565h38.347zM244.14 704h-38.085l28.104-645.565h38.347zM748.308 828.533h-207.863v53.333c0 43.2-34.038 78.133-76.13 78.133h-180.581c-41.832 0-75.87-34.933-75.87-78.133v-53.333h-207.863v-39.2h54.824l61.32-775.2c0-43.2 34.038-78.133 76.13-78.133h366.359c42.092 0 76.13 34.933 76.13 78.133l60.54 775.2h53.005v39.2zM245.798 881.867c0 21.6 17.149 39.2 37.935 39.2h180.581c21.046 0 37.935-17.6 37.935-39.2v-53.333h-256.451v53.333zM596.568 16.267v-2.133c0-21.6-17.149-39.2-37.935-39.2h-366.359c-21.046 0-37.935 17.6-37.935 39.2v2.133l-61.579 773.067h564.349l-60.54-773.067z"/>
<glyph unicode="" glyph-name="close2" d="M872.551 810.272c-96.592 96.592-224.807 149.728-361.412 149.728s-264.82-53.136-361.412-149.728c-96.592-96.592-149.728-224.807-149.728-361.412s53.136-264.82 149.728-361.412c96.592-96.592 224.807-149.728 361.412-149.728s264.82 53.136 361.412 149.728c96.592 96.592 149.728 224.807 149.728 361.412s-53.136 264.82-149.728 361.412zM831.462 128.538c-85.62-85.62-199.422-132.733-320.323-132.733s-234.703 47.113-320.323 132.733c-176.618 176.618-176.618 464.027 0 640.645 85.62 85.62 199.422 132.733 320.323 132.733s234.703-47.113 320.323-132.733c176.618-176.618 176.618-464.027 0-640.645zM736.376 674.097c-11.402 11.402-29.687 11.402-41.089 0l-184.148-184.148-184.148 184.148c-11.402 11.402-29.687 11.402-41.089 0s-11.402-29.687 0-41.089l184.148-184.148-184.148-184.148c-11.402-11.402-11.402-29.687 0-41.089 5.593-5.593 13.123-8.605 20.437-8.605s14.844 2.797 20.437 8.605l184.148 184.148 184.148-184.148c5.593-5.593 13.123-8.605 20.437-8.605 7.529 0 14.844 2.797 20.437 8.605 11.402 11.402 11.402 29.687 0 41.089l-183.718 184.148 184.148 184.148c11.402 11.402 11.402 29.687 0 41.089z"/>
<glyph unicode="" glyph-name="contract" horiz-adv-x="811" d="M595.39 938.667h-480.966v-136.533h-93.091v-844.8h674.909v136.533h93.091v702.578l-193.943 142.222zM600.487 906.502l144.244-105.791h-145.129l0.884 105.791zM672.97 116.622v-136.533h-628.364v799.289h439.575l-1.117-137.956h189.905v-524.8zM506.512 664.178l0.873 105.791 144.256-105.791h-145.129zM766.061 116.622h-69.818v543.289l-193.943 142.222h-364.602v113.778h439.575l-1.117-137.956h189.905v-661.333zM119.867 576h-13.2v21.333h234.667v-21.333h-221.467zM108.067 490.667h446.6v-21.333h-448v21.333h1.4zM108.067 405.333h446.6v-21.333h-448v21.333h1.4zM108.067 320h446.6v-21.333h-448v21.333h1.4zM108.067 213.333h446.6v-21.333h-448v21.333h1.4z"/>
<glyph unicode="" glyph-name="bell" d="M157.327 264.008c2.376 2.376 2.376 7.004 2.376 9.339v337.306c0 93.020 37.56 181.453 103.342 246.62 70.451 69.796 166.748 106.988 272.425 102.359 183.214-11.633 328.827-169.82 328.827-358.277v-328.008c0-2.335 2.335-6.963 2.335-9.339l157.368-258.212h-441.508c0-39.526-30.556-69.796-70.492-69.796s-70.451 30.269-70.451 69.796h-441.549l157.327 258.212zM512-19.476c13.353 0 22.282 17.859 22.282 44.524h-44.524c0-26.706 8.888-44.524 22.241-44.524v0zM471.204 69.571h463.749l-111.862 182.845c-7.004 9.134-11.633 22.815-11.633 34.243v322.191c2.376 162.243-121.16 294.789-279.593 306.217-88.596 4.547-172.483-27.402-233.062-86.835-58.286-57.139-88.596-130.253-88.596-210.248v-331.325c0-11.428-4.669-25.108-9.339-34.243l-111.862-182.845h382.198z"/>
<glyph unicode="" glyph-name="create-profile" d="M901.478 102.605c0-45.107-36.71-83.149-81.818-83.149h-654.234c-45.107 0-81.766 38.042-81.766 83.149v654.285c0 45.107 36.659 80.435 81.766 80.435h381.696v54.477h-381.696c-75.162 0-136.294-59.802-136.294-134.963v-654.234c0-75.162 61.133-137.626 136.294-137.626h654.234c75.162 0 136.294 62.515 136.294 137.626v380.314h-54.528v-380.314h0.051zM962.918 900.096c-41.165 41.216-112.998 41.216-154.214 0l-365.722-365.722c-3.482-3.482-5.99-7.885-7.168-12.646l-38.502-154.112c-2.304-9.318 0.41-19.098 7.168-25.958 5.171-5.171 12.134-7.936 19.251-7.936 2.202 0 4.403 0.205 6.605 0.819l154.214 38.554c4.813 1.126 9.165 3.635 12.646 7.168l365.722 365.722c20.582 20.582 32 47.974 32 77.107 0 29.082-11.366 56.422-32 77.005zM564.019 424.090l-102.81-25.702 25.702 102.81 302.541 302.541 77.107-77.107-302.541-302.541zM924.416 784.486l-19.302-19.251-77.107 77.107 19.251 19.251c20.582 20.582 56.525 20.582 77.158 0 10.24-10.291 15.974-23.962 15.974-38.554-0.051-14.592-5.734-28.262-15.974-38.554z"/>
<glyph unicode="" glyph-name="dashboard" horiz-adv-x="1107" d="M585.451 472.604c-10.185 3.266-20.757 5.507-31.938 5.507-60.278 0-109.319-50.813-109.319-113.249s49.041-113.249 109.319-113.249c49.512 0 90.998 34.512 104.365 81.366l275.622 234.441-23.22 38.663-324.829-133.48zM553.514 293.127c-37.39 0-67.805 32.187-67.805 71.735s30.416 71.735 67.805 71.735c7.777 0 15.166-1.688 22.141-4.234l43.921-83.165c-6.781-32.021-33.792-56.071-66.062-56.071zM660.12 389.355c-4.705 21.891-15.471 41.403-30.471 56.514l187.447 77.049-156.976-133.563zM553.514 940.572c-304.432 0-552.13-258.269-552.13-575.709 0-114.356 32.048-224.837 92.686-319.46l34.954 22.39c-2.602 4.041-4.843 8.303-7.334 12.426l39.908 24.050-21.421 35.563-38.552-23.248c-35.259 70.158-55.047 147.539-57.981 227.522h44.918v41.514h-44.669c3.017 81.837 23.358 158.997 57.842 227.411l38.386-23.137 21.421 35.536-39.493 23.829c40.49 66.975 94.651 123.821 158.582 166.331l22.251-40.24 36.31 20.093-23.165 41.929c65.204 36.006 138.766 57.289 216.728 60.582v-47.519h41.514v47.547c77.962-3.321 151.524-24.576 216.728-60.582l-23.165-41.929 36.31-20.093 22.224 40.24c63.958-42.51 118.12-99.356 158.609-166.331l-39.521-23.829 21.449-35.536 38.358 23.137c34.484-68.442 54.798-145.602 57.842-227.411h-44.641v-41.514h44.945c-2.906-79.927-22.694-157.309-57.981-227.494l-38.525 23.22-21.449-35.563 39.881-24.050c-2.518-4.179-4.816-8.496-7.445-12.592l34.982-22.39c60.665 94.734 92.769 205.243 92.769 319.626 0 317.412-247.67 575.682-552.13 575.682zM311.324-48.944h484.38v133.978h-484.38v-133.978zM352.837 43.52h401.353v-50.951h-401.353v50.951z"/>
<glyph unicode="" glyph-name="invoice" d="M785.067 699.563c-49.493 0-89.771 40.277-89.771 89.771s40.277 89.771 89.771 89.771 89.771-40.277 89.771-89.771-40.277-89.771-89.771-89.771zM785.067 836.096c-25.805 0-46.763-20.992-46.763-46.763s20.958-46.763 46.763-46.763 46.763 20.992 46.763 46.763-20.958 46.763-46.763 46.763zM452.574-51.371c-16.691 0-32.427 6.485-44.203 18.261l-377.412 377.446c-11.844 11.81-18.33 27.546-18.33 44.237 0 16.725 6.485 32.461 18.33 44.271l493.705 493.67c19.217 19.251 45.978 20.855 74.001 20.855l13.756-0.034 323.14 0.034c41.813 0 75.81-33.997 75.81-75.81l-0.068-323.14 0.034-7.066c0.102-29.321 0.239-59.665-20.787-80.691l-493.705-493.739c-11.844-11.776-27.546-18.295-44.271-18.295zM598.665 904.363c-18.637 0-36.011-0.649-43.588-8.226l-493.705-493.705c-3.686-3.686-5.734-8.636-5.734-13.858 0-5.188 2.048-10.138 5.734-13.824l377.378-377.412c7.407-7.373 20.343-7.373 27.716 0.034l493.67 493.705c8.363 8.363 8.26 28.638 8.158 50.108l0.068 330.377c0 18.091-14.711 32.802-32.802 32.802h-336.896z"/>
<glyph unicode="" glyph-name="options" horiz-adv-x="178" d="M89.043 781.913c-49.177 0-89.043 39.866-89.043 89.043s39.866 89.043 89.043 89.043c49.177 0 89.043-39.866 89.043-89.043s-39.866-89.043-89.043-89.043zM89.043 381.217c-49.177 0-89.043 39.866-89.043 89.043s39.866 89.043 89.043 89.043c49.177 0 89.043-39.866 89.043-89.043s-39.866-89.043-89.043-89.043zM89.043-64c-49.177 0-89.043 39.866-89.043 89.043s39.866 89.043 89.043 89.043c49.177 0 89.043-39.866 89.043-89.043s-39.866-89.043-89.043-89.043z"/>
<glyph unicode="" glyph-name="people" horiz-adv-x="853" d="M10.524 432.434c9.529-32.341 35.015-75.89 38.827-82.574 4.665-10.069 7.652-20.537 8.704-31.374l35.868-326.457c2.133-19.513 19.74-34.276 40.96-34.276h61.98c21.22 0 38.855 14.791 40.96 34.276l35.868 326.457c1.28 11.065 4.238 21.902 9.131 31.943 4.238 9.045-0.199 19.513-9.756 23.438-9.756 3.954-21.020-0.171-25.259-9.045-6.372-13.625-10.638-27.989-12.089-42.78l-35.868-326.428c-0.199-1.166-1.28-2.162-2.532-2.162h-62.009c-1.252 0-2.532 0.996-2.532 2.162l-36.295 326.628c-1.707 14.82-5.746 29.184-12.089 42.78-0.228 0.597-0.427 0.967-0.853 1.593-0.228 0.398-26.965 45.141-35.868 75.292-9.756 33.707-12.516 107.036-4.466 120.064 6.372 5.916 9.131 8.277 15.701 12.8 16.754 11.435 36.096 20.708 48.583 26.226l42.866-54.812c3.612-4.523 9.358-7.282 15.502-7.282s11.89 2.759 15.502 7.282l51.996 66.446c6.144 7.879 4.238 19.115-4.238 25.031-8.505 5.717-20.594 3.954-26.965-3.954l-36.494-46.535-36.096 46.336c-5.092 6.684-14.649 9.074-22.699 6.116-1.479-0.597-39.282-14.791-70.684-36.267-8.903-6.116-13.17-9.842-20.594-16.754-27.136-25.23-12.060-130.105-5.063-154.169zM168.988 670.713c0.398 0 0.796 0 1.223 0 0.199 0 0.597 0 0.796 0 0.398 0 0.825 0 1.422 0 23.58 0.597 43.463 9.131 57.685 25.173 30.293 34.076 26.027 90.88 25.23 97.991-3.044 62.692-46.734 84.793-83.086 84.793-0.597 0-1.223 0-1.621 0s-1.024 0-1.621 0c-36.352 0-79.844-22.329-83.086-84.793-0.626-7.111-5.092-63.915 25.173-97.991 14.421-16.014 34.332-24.747 57.884-25.173zM122.681 790.635c0 0.398 0 0.825 0 1.223 2.020 43.833 29.867 50.318 46.308 50.318h0.825c0.427 0 1.024 0 1.422 0h0.796c16.469 0 44.288-6.485 46.308-50.318 0-0.398 0-0.825 0-1.024 1.422-12.999 1.024-50.944-16.242-70.4-7.509-8.505-17.863-12.772-31.46-12.772-0.199 0-0.199 0-0.398 0v0c-13.625 0.199-23.979 4.267-31.488 12.772-17.095 19.285-17.294 57.202-16.071 70.201zM580.38 373.952c-9.785-3.954-14.222-14.62-9.785-23.467 4.892-10.24 7.851-20.907 9.102-31.943l35.868-326.485c2.105-19.513 19.712-34.276 40.903-34.276h61.952c21.163 0 38.77 14.791 40.903 34.276l35.868 326.485c1.252 10.866 4.039 21.305 8.704 31.374 3.812 6.514 29.468 50.062 38.798 82.603 6.997 24.036 22.244 128.91-4.864 154.14-7.452 6.912-11.662 10.638-20.594 16.754-31.403 21.476-68.921 35.669-70.628 36.267-8.249 3.157-17.579 0.597-22.67-6.116l-36.466-46.535-36.693 46.336c-6.172 8.078-18.233 9.643-26.937 3.954-8.476-5.717-10.382-16.953-4.21-25.031l51.94-66.446c3.612-4.523 9.33-7.282 15.502-7.282 6.144 0 11.861 2.759 15.474 7.282l42.837 54.812c12.487-5.518 31.801-14.791 48.555-26.197 6.372-4.352 9.131-6.912 15.701-12.828 8.050-13.028 5.319-86.357-4.437-120.064-8.903-30.18-35.641-74.923-35.84-75.321-0.228-0.398-0.654-0.967-0.853-1.564-6.372-13.625-10.61-27.989-12.089-42.78l-35.84-326.485c-0.228-1.195-1.28-2.162-2.56-2.162h-61.924c-1.28 0-2.56 0.967-2.56 2.162l-35.84 326.485c-1.707 14.791-5.717 29.156-12.089 42.78-4.238 9.273-15.502 13.198-25.23 9.273zM680.789 670.713c0.427 0 0.825 0 1.451 0 0.199 0 0.597 0 0.796 0 0.427 0 0.796 0 1.223 0 23.552 0.427 43.463 9.131 57.884 25.173 30.265 34.076 25.998 90.88 25.202 97.991-3.044 62.692-46.507 84.793-83.086 84.793-0.597 0-1.223 0-1.65 0-0.398 0-0.996 0-1.621 0-36.352 0-79.844-22.329-83.086-84.793-0.597-7.111-5.092-63.915 25.202-97.991 14.222-16.014 34.105-24.548 57.685-25.173zM634.482 790.635c0 0.398 0 0.825 0 1.223 2.020 43.833 29.867 50.318 46.308 50.318h0.825c0.398 0 0.996 0 1.422 0h0.796c16.441 0 44.288-6.485 46.336-50.318 0-0.398 0-0.825 0-1.024 1.422-12.999 0.996-50.944-16.27-70.4-7.509-8.505-17.863-12.572-31.46-12.772v0c-0.199 0-0.199 0-0.427 0-13.625 0.199-23.95 4.267-31.46 12.772-17.095 19.285-17.266 57.202-16.071 70.201zM271.872 641.387c-27.79-27.25-12.146-140.8-4.75-167.026 9.87-35.3 36.21-82.916 40.135-89.771 4.949-11.093 8.021-22.585 9.273-34.475l37.035-356.068c2.048-20.764 19.74-36.267 41.131-36.267h64c21.191 0 38.884 15.73 41.131 36.267l37.063 356.068c1.223 11.89 4.324 23.58 9.273 34.475 3.897 7.083 30.208 54.471 40.107 89.771 7.196 26.226 23.068 139.804-4.722 167.026-7.623 7.452-11.947 11.492-20.992 18.148-32.313 23.41-71.196 38.713-72.846 39.538-8.050 3.243-17.124 0.597-22.016-6.258l-39.31-52.252-38.684 52.224c-4.949 6.855-14.222 9.273-22.016 6.258-1.65-0.597-40.334-16.128-72.846-39.538-9.045-6.628-13.568-10.667-20.964-18.119zM298.61 615.958c6.798 6.656 9.671 9.273 16.469 14.137 17.692 12.914 38.286 23.182 51.456 29.241l44.857-60.501c3.499-4.636 9.045-7.452 15.019-7.452s11.52 2.816 15.019 7.452l44.857 60.501c12.942-6.030 33.536-16.327 51.456-29.241 6.77-4.836 9.671-7.481 16.441-14.137 8.676-13.71 5.973-94.606-4.523-131.925-9.244-33.081-36.807-81.892-37.262-82.318-0.199-0.398-0.597-0.996-0.796-1.621-6.571-14.734-10.923-30.236-12.544-46.393l-37.035-356.039c-0.228-2.020-1.849-3.413-3.925-3.413h-64c-2.048 0-3.698 1.394-3.897 3.413l-37.035 356.039c-1.65 15.957-5.774 31.659-12.544 46.393-0.199 0.597-0.427 0.996-0.825 1.621-0.199 0.427-27.989 49.436-37.262 82.517-9.899 37.12-12.572 118.016-3.925 131.726zM424.932 730.134c0.398 0 0.967 0 1.337 0 0.199 0 0.768 0 0.967 0 0.398 0 0.768 0 1.166 0 23.922 0.398 43.264 8.846 57.714 25.173 30.492 34.020 25.884 91.278 25.316 98.219-3.1 62.464-46.535 84.565-83.029 84.565-0.569 0-1.138 0-1.735 0-0.398 0-0.967 0-1.735 0-36.295 0-79.929-22.101-83.001-84.565-0.597-6.912-5.234-64 25.287-98.020 14.45-16.327 33.963-24.775 57.714-25.372zM376.86 850.255c0 0.37 0 0.768 0 1.166 2.133 46.876 34.361 51.883 48.071 51.883h0.967c0.398 0 0.967 0 1.365 0h0.967c13.71 0 45.966-5.006 48.071-51.883 0-0.398 0-0.768 0-0.967 1.365-13.255 1.166-52.082-16.612-71.879-7.879-8.846-18.716-13.255-32.796-13.255-0.199 0-0.398 0-0.597 0-14.080 0.199-24.889 4.437-32.825 13.255-17.778 19.598-17.948 58.425-16.612 71.68z"/>
<glyph unicode="" glyph-name="search" horiz-adv-x="973" d="M961.229 61.030l-252.826 252.826c48.077 63.488 77.005 142.336 77.005 227.994 0 208.794-169.83 378.624-378.675 378.624-208.794 0-378.624-169.83-378.624-378.624s169.83-378.624 378.624-378.624c65.024 0 126.259 16.486 179.814 45.517l261.222-261.222 113.459 113.51zM108.442 541.85c0 164.506 133.837 298.342 298.342 298.342s298.342-133.837 298.342-298.342c0-164.506-133.837-298.342-298.342-298.342s-298.342 133.837-298.342 298.342z"/>
<glyph unicode="" glyph-name="subscriptions" horiz-adv-x="953" d="M858.571 740.37h-163.452c-18.326 119.914-117.054 211.862-236.12 211.862s-217.759-91.948-236.085-211.862h-128.177l-90.324-796.601h944.446l-90.289 796.601zM459.034 897.148c88.806 0 163.098-67.407 180.436-156.778h-360.942c17.373 89.406 91.701 156.778 180.506 156.778zM143.996 685.286h75.67v-184.32c0-15.219 12.323-27.542 27.542-27.542s27.542 12.323 27.542 27.542v19.068c7.027-7.945 16.949-13.171 28.39-13.171 21.116 0 38.241 17.126 38.241 38.241s-17.126 38.241-38.241 38.241c-11.441 0-21.363-5.226-28.39-13.171v115.112h368.64v-102.753c-19.174-2.119-34.251-17.761-34.251-37.464s15.078-35.346 34.251-37.464v-6.638c0-15.219 12.359-27.542 27.542-27.542s27.542 12.323 27.542 27.542v184.32h110.98l77.824-686.433h-821.071l77.789 686.433z"/>
<glyph unicode="" glyph-name="support" d="M162.099-57.118l-46.012 0.205 25.020 37.069c45.978 68.13 57.685 126.327 60.655 150.528-123.255 86.699-196.403 221.423-196.403 363.179 0 253.235 227.294 459.264 506.641 459.264 279.381 0 506.641-206.029 506.641-459.298s-227.26-459.298-506.641-459.298c-41.609 0-82.876 4.574-122.812 13.551-27.511-30.037-108.169-105.199-227.089-105.199zM512 905.339c-252.996 0-458.82-184.593-458.82-411.511 0-130.082 69.769-253.918 186.675-331.298l10.684-7.1v-12.8c0-3.004-0.512-65.126-44.783-147.729 96.017 18.842 155.204 93.559 155.853 94.447l9.591 12.356 15.189-3.789c40.585-10.342 82.842-15.565 125.542-15.565 252.996 0 458.82 184.593 458.82 411.511s-205.756 411.477-458.752 411.477z"/>
<glyph unicode="" glyph-name="rocket" horiz-adv-x="849" d="M832.235 951.835l-16.149-2.847c-10.969-1.971-22.274-4.012-32.902-6.558-132.121-28.592-234.544-102.131-310.038-194.685-45.593-55.897-82.009-118.319-109.436-182.019l-59.754 21.251c30.019 51.679 47.569 112.020 38.28 177.798l-2.502 18.48-17.358-4.574c-133.026-28.183-206.193-151.901-235.091-254.884-0.493-0.065-0.983-0.151-1.468-0.259l-64.598-37.123c-5.019-2.787-8.276-7.936-8.643-13.666s2.204-11.252 6.826-14.658l17.269-12.092c-12.531-7.434-15.352-17.888-19.088-29.099-3.738-11.214-6.748-24.266-8.727-36.354-3.955-24.173-4.583-46.976-4.583-46.976l-1.472-25.992 24.785 9.668c0 0 20.177 8.030 41.971 19.51 10.899 5.743 22.493 12.644 32.040 20.030s18.568 14.579 21.42 28.753l17.269-12.092c4.586-3.282 10.508-4.055 15.783-2.061s9.204 6.493 10.47 11.988l17.108 70.376c0.448 1.514 0.68 3.084 0.691 4.663 9.718 7.040 19.797 13.618 29.45 21.843l107.592-39.306c-2.36-8.918-4.698-17.359-6.739-26.164-0.677-2.92-1.558-5.777-2.246-8.721l-70.038-32.028c-5.485-2.558-9.178-7.859-9.679-13.891s2.269-11.869 7.257-15.296l51.807-36.276c-7.747-2.333-15.414-4.698-23.317-9.409-16.762-9.992-22.835-27.822-29.453-47.577-6.62-19.758-11.521-41.779-15.207-63.986-7.371-44.412-9.856-85.748-9.856-85.748l-2.076-26.856 24.785 9.668c0 0 38.401 15.361 78.328 36.517 19.962 10.576 40.508 22.826 57.258 35.829s31.282 25.36 35.239 44.813c1.818 8.943 2.014 16.736 1.73 24.524l50.944-35.671c4.724-3.586 10.984-4.428 16.487-2.217s9.441 7.15 10.37 13.007l10.2 75.213c2.746 1.88 5.192 4.103 8.032 5.957 10.736 7.012 21.050 13.809 31.781 21.498l69.763-82.305c-3.36-8.185-6.523-16.243-9.33-24.351-3.016-8.712-5.211-17.062-7.603-25.56-0.493-0.065-0.983-0.151-1.468-0.259l-64.598-37.123c-5.019-2.787-8.276-7.936-8.643-13.666s2.204-11.252 6.826-14.658l17.269-12.092c-12.531-7.434-15.352-17.888-19.088-29.099-3.738-11.214-6.748-24.266-8.727-36.354-3.955-24.173-5.447-46.371-5.447-46.371l-1.472-25.992 24.785 9.668c0 0 21.040 7.425 42.834 18.906 10.899 5.743 22.493 12.644 32.040 20.030s18.568 14.579 21.42 28.753l17.269-12.092c4.586-3.282 10.508-4.055 15.783-2.061s9.204 6.493 10.47 11.988l17.108 70.376c-0.065 0.493-0.151 0.983-0.259 1.468 0.21 0.281 0.412 0.569 0.605 0.863 86.889 62.378 178.122 173.446 159.107 308.089l-2.502 18.48-17.358-4.574c-60.286-12.772-109.338-45.291-146.727-86.42l-40.407 48.882c47.201 45.675 90.564 98.464 125.235 156.801 65.904 110.889 100.587 243.382 71.21 390.224l-2.847 16.149zM803.214 910.389c8.59-63.21 5.708-123.148-6.761-180.565l-160.603 112.455c49.68 31.37 105.046 54.553 167.363 68.11zM602.688 824.322l188.233-131.802c-13.075-45.752-31.764-88.844-55.889-129.437-62.556-105.256-155.69-192.51-247.612-252.551-3.897-2.542-7.684-4.889-11.572-7.338l-131.245 91.899c0.875 4.037 2.253 7.846 3.197 11.916 24.821 107.055 74.21 224.576 151.768 319.661 30.136 36.946 64.187 69.442 103.12 97.652zM664.761 712.658c-27.503 19.258-66.42 11.731-85.752-15.877s-12.491-65.888 15.014-85.147c27.505-19.259 65.815-12.595 85.147 15.014s13.094 66.752-14.409 86.011zM645.414 685.028c12.27-8.592 15.207-26.063 6.126-39.033s-25.9-15.321-38.169-6.73c-12.269 8.591-15.812 25.2-6.73 38.169s26.504 16.185 38.774 7.594zM307.95 736.023c2.942-108.063-72.334-199.956-147.614-253.083l-41.446 29.021c24.223 89.059 86.192 190.059 189.060 224.062zM810.481 384.147c3.153-108.24-71.374-200.492-146.751-253.688l-41.446 29.021c24.181 88.903 85.657 190.475 188.197 224.667zM613.851 366.127l44.12-52.768c-7.876-10.586-15.423-22.228-22.111-33.416-4.785-8.004-8.937-16.081-13.129-24.264l-58.366 69.178c16.709 12.939 33.281 26.754 49.487 41.27zM350.408 533.863c-7.705-20.045-13.45-41.038-19.524-60.963l-89.026 32.741c15.535 15.629 29.758 33.753 43.012 52.238l65.539-24.016zM318.348 372.299l143.334-100.363-4.668-37.909-174.418 122.129 35.753 16.143zM93.499 488.563l54.398-38.090-8.986-34.886-77.711 54.414 32.299 18.562zM596.030 136.687l54.398-38.090-8.986-34.886-77.711 54.414 32.299 18.562zM349.594 268.065l0.863-0.605c8.68-6.078 15.891-13.023 20.29-20.641 4.556-7.893 7.561-17.411 3.535-37.219-0.672-3.318-8.374-15.679-22.542-26.68-14.173-11.003-32.953-21.816-51.903-31.857-24.552-13.008-35.048-16.32-49.052-22.272 1.348 15.309 1.379 25.388 5.879 52.502 3.515 21.179 7.997 43.048 13.652 59.928s14.583 27.646 16.152 28.581c15.581 9.288 26.451 10.869 36.184 9.408 9.401-1.411 18.74-5.594 26.941-11.143zM79.845 415.768c4.743-3.321 7.683-6.471 9.152-8.982s2.957-5.779 1.121-14.939c0.406 2.021-2.896-3.169-9.846-8.548-6.954-5.38-15.943-11.458-25.822-16.663-6.587-3.471-7.486-3.451-13.299-6.129 0.735 6.448-0.010 7.135 1.211 14.594 1.808 11.054 4.658 22.507 7.431 30.827 2.774 8.319 7.669 12.334 4.924 10.707 7.021 4.164 10.954 4.586 14.422 4.057 3.465-0.532 6.603-2.091 10.707-4.924zM582.376 63.892c4.743-3.321 6.819-5.866 8.289-8.377s2.957-5.778 1.121-14.939c0.406 2.021-2.030-3.775-8.982-9.152-6.954-5.38-16.806-10.853-26.686-16.058-6.665-3.511-7.436-3.432-13.299-6.129 0.726 6.282 0.897 6.792 2.074 13.989 1.808 11.054 4.658 22.507 7.431 30.827 2.774 8.319 6.803 12.941 4.060 11.312 7.021 4.164 10.954 4.586 14.422 4.057 3.465-0.532 7.467-2.696 11.571-5.528z"/>
<glyph unicode="" glyph-name="companies" d="M981.333 533.333h-213.333v384c0 25.6-17.067 42.667-42.667 42.667h-426.667c-25.6 0-42.667-17.067-42.667-42.667v-384h-213.333c-25.6 0-42.667-17.067-42.667-42.667v-554.667h1024v554.667c0 25.6-17.067 42.667-42.667 42.667zM85.333 21.333v426.667h170.667v-426.667h-170.667zM341.333 21.333v853.333h341.333v-853.333h-341.333zM768 21.333v426.667h170.667v-426.667h-170.667zM170.667 405.333h42.667v-85.333h-42.667v85.333zM170.667 277.333h42.667v-85.333h-42.667v85.333zM810.667 405.333h42.667v-85.333h-42.667v85.333zM810.667 277.333h42.667v-85.333h-42.667v85.333zM426.667 789.333h42.667v-85.333h-42.667v85.333zM426.667 661.333h42.667v-85.333h-42.667v85.333zM426.667 533.333h42.667v-85.333h-42.667v85.333zM426.667 405.333h42.667v-85.333h-42.667v85.333zM426.667 277.333h42.667v-85.333h-42.667v85.333zM554.667 789.333h42.667v-85.333h-42.667v85.333zM554.667 661.333h42.667v-85.333h-42.667v85.333zM554.667 533.333h42.667v-85.333h-42.667v85.333zM554.667 405.333h42.667v-85.333h-42.667v85.333zM554.667 277.333h42.667v-85.333h-42.667v85.333z"/>
<glyph unicode="" glyph-name="card" d="M934.957 61.902h-845.913c-49.175 0-89.043 39.93-89.043 89.18v535.082c0 49.25 39.87 89.18 89.043 89.18h845.913c49.175 0 89.043-39.93 89.043-89.18v-535.082c0-49.25-39.87-89.18-89.043-89.18zM44.523 485.508h934.957v89.18h-934.957v-89.18zM979.479 686.164c0 24.613-19.946 44.59-44.522 44.59h-845.913c-24.576 0-44.522-19.976-44.522-44.59v-66.885h934.957v66.885zM979.479 440.918h-934.957v-289.836c0-24.613 19.946-44.59 44.522-44.59h845.913c24.576 0 44.522 19.976 44.522 44.59v289.836zM556.522 307.147h-89.043c-12.311 0-22.261 9.966-22.261 22.295 0 12.307 9.951 22.295 22.261 22.295h89.043c12.311 0 22.261-9.988 22.261-22.295 0-12.329-9.951-22.295-22.261-22.295zM356.175 307.147h-200.348c-12.311 0-22.261 9.966-22.261 22.295 0 12.307 9.951 22.295 22.261 22.295h200.348c12.311 0 22.261-9.988 22.261-22.295 0-12.329-9.951-22.295-22.261-22.295zM155.827 240.262h133.565c12.311 0 22.261-9.988 22.261-22.295 0-12.329-9.951-22.295-22.261-22.295h-133.565c-12.311 0-22.261 9.966-22.261 22.295 0 12.307 9.951 22.295 22.261 22.295z"/>
<glyph unicode="" glyph-name="document" d="M789.333-42.667h-554.667c-47.125 0-85.333 38.208-85.333 85.333v810.667c0 47.125 38.208 85.333 85.333 85.333h404.757c0.043 0 0.107 0 0.149 0h0.427c6.827 0 12.651-3.435 16.555-8.427l209.685-209.685c5.013-3.904 8.427-9.728 8.427-16.555v0-0.448c0-0.043 0-0.064 0-0.107v-660.779c0-47.125-38.208-85.333-85.333-85.333zM661.333 866.539v-141.205h141.205l-141.205 141.205zM832 682.667h-192c-11.797 0-21.333 9.557-21.333 21.333v192h-384c-23.552 0-42.667-19.115-42.667-42.667v-810.667c0-23.552 19.115-42.667 42.667-42.667h554.667c23.552 0 42.667 19.115 42.667 42.667v640zM704 128h-384c-11.797 0-21.333 9.536-21.333 21.333 0 11.776 9.536 21.333 21.333 21.333h384c11.797 0 21.333-9.557 21.333-21.333 0-11.797-9.536-21.333-21.333-21.333zM704 298.667h-384c-11.797 0-21.333 9.536-21.333 21.333 0 11.776 9.536 21.333 21.333 21.333h384c11.797 0 21.333-9.557 21.333-21.333 0-11.797-9.536-21.333-21.333-21.333zM704 469.333h-384c-11.797 0-21.333 9.536-21.333 21.333 0 11.776 9.536 21.333 21.333 21.333h384c11.797 0 21.333-9.557 21.333-21.333 0-11.797-9.536-21.333-21.333-21.333z"/>
<glyph unicode="" glyph-name="filter" horiz-adv-x="1126" d="M1093.207 914.558c-8.733 21.098-29.078 34.7-51.876 34.7h-985.146c-22.798 0-43.143-13.602-51.876-34.7-8.714-21.079-3.941-45.133 12.172-61.266l389.835-390.472v-488.564c0-13.157 10.626-23.745 23.745-23.745 13.138 0 23.745 10.607 23.745 23.745v498.418c0 6.318-2.512 12.365-6.955 16.809l-396.79 397.447c-3.555 3.574-2.705 7.438-1.893 9.409 0.85 2.029 2.956 5.333 8.018 5.333h985.165c5.023 0 7.149-3.342 7.999-5.333 0.811-1.99 1.662-5.854-1.913-9.409l-396.732-397.447c-4.444-4.444-6.955-10.491-6.955-16.809v-355.734c0-13.157 10.626-23.745 23.745-23.745 13.157 0 23.745 10.626 23.745 23.745v345.899l389.835 390.472c16.056 16.114 20.847 40.168 12.133 61.247z"/>
<glyph unicode="" glyph-name="history" horiz-adv-x="1182" d="M612.423 954.439c-280.488 0-508.681-228.175-508.646-507.215-0.212-4.431-2.772-78.301 18.255-157.855l-68.52 39.936c-17.020 9.887-38.7 4.149-48.693-12.835-9.852-16.949-4.131-38.753 12.835-48.64l160.574-93.608c0.335-0.177 0.671-0.23 0.989-0.388 1.713-0.918 3.46-1.589 5.314-2.225 1.254-0.441 2.472-0.9 3.725-1.201 1.536-0.335 3.054-0.441 4.626-0.583 1.095-0.106 2.189-0.441 3.284-0.441 0.618 0 1.201 0.212 1.836 0.247 0.6 0.018 1.112-0.124 1.713-0.071 0.883 0.088 1.677 0.459 2.542 0.6 1.713 0.3 3.337 0.671 4.979 1.201 1.377 0.459 2.737 1.006 4.061 1.642 1.483 0.706 2.878 1.483 4.255 2.401 1.254 0.812 2.454 1.695 3.584 2.648 1.254 1.059 2.366 2.207 3.478 3.443 1.042 1.148 1.942 2.348 2.807 3.619 0.477 0.706 1.112 1.218 1.536 1.942 0.318 0.547 0.318 1.183 0.583 1.73 0.477 0.971 1.218 1.818 1.642 2.86l63.876 158.155c7.362 18.22-1.43 38.965-19.633 46.327-18.238 7.309-38.965-1.448-46.327-19.668l-32.803-81.214c-21.892 73.216-19.403 148.445-19.332 150.51 0 241.24 196.273 437.495 437.478 437.495 241.223 0 437.478-196.255 437.478-437.495 0-241.205-196.255-437.46-437.478-437.46-19.668 0-35.593-15.943-35.593-35.593s15.907-35.593 35.593-35.593c280.505 0 508.681 228.175 508.681 508.646-0.035 280.505-228.211 508.681-508.698 508.681v0zM598.793 377.344c3.584-1.483 7.362-2.013 11.193-2.278 0.794-0.053 1.571-0.477 2.366-0.477 4.167 0 8.21 0.953 12.076 2.366 1.077 0.388 2.083 0.953 3.125 1.465 2.948 1.412 5.667 3.213 8.174 5.42 0.547 0.477 1.271 0.653 1.818 1.201l222.226 222.226c13.912 13.912 13.912 36.423 0 50.335-13.895 13.912-36.405 13.912-50.335 0l-205.365-205.347-184.302 77.188c-18.238 7.609-39-0.936-46.61-19.085-7.592-18.132 0.971-38.983 19.068-46.574l206.354-86.404c0.071-0.018 0.141-0.018 0.212-0.035z"/>
<glyph unicode="" glyph-name="package" d="M752.417 25.043h-667.826c-24.576 0-44.522-19.901-44.522-44.522s19.946-44.522 44.522-44.522h667.826c24.576 0 44.522 19.901 44.522 44.522s-19.946 44.522-44.522 44.522zM943.416 12.132c-8.014-8.415-12.911-19.545-12.911-31.61 0-11.576 4.897-23.151 12.911-31.61 8.459-8.014 20.035-12.911 31.61-12.911s23.107 4.897 31.61 12.911c8.014 8.459 12.911 20.035 12.911 31.61 0 12.065-4.897 23.196-12.911 31.61-16.918 16.473-46.303 16.473-63.221 0zM975.026 648.348h-667.826c-24.576 0-44.522-19.901-44.522-44.522s19.946-44.522 44.522-44.522h667.826c24.576 0 44.522 19.901 44.522 44.522s-19.946 44.522-44.522 44.522zM975.026 336.696h-445.217c-24.576 0-44.522-19.901-44.522-44.522s19.946-44.522 44.522-44.522h445.217c24.576 0 44.522 19.901 44.522 44.522s-19.946 44.522-44.522 44.522zM40.070 292.174c0-24.621 19.946-44.522 44.522-44.522h89.043c24.576 0 44.522 19.901 44.522 44.522s-19.946 44.522-44.522 44.522h-89.043c-24.576 0-44.522-19.901-44.522-44.522zM796.939 915.478c0 24.621-19.946 44.522-44.522 44.522h-667.826c-24.576 0-44.522-19.901-44.522-44.522s19.946-44.522 44.522-44.522h667.826c24.576 0 44.522 19.901 44.522 44.522zM943.416 947.089c-8.014-8.415-12.911-19.545-12.911-31.61 0-11.576 4.897-23.151 12.911-31.61 8.459-8.014 20.035-12.911 31.61-12.911 11.976 0 23.107 4.897 31.61 12.911 8.014 8.459 12.911 20.035 12.911 31.61s-4.897 23.196-12.911 31.61c-16.473 16.473-46.748 16.473-63.221 0zM160.723 572.22c8.014 8.459 12.911 19.59 12.911 31.61 0 12.065-4.897 23.196-12.911 31.61-16.473 16.473-46.303 16.473-63.221 0-8.014-8.415-12.911-19.545-12.911-31.61 0-12.021 4.897-23.151 12.911-31.61 8.459-8.014 20.035-12.911 31.61-12.911s23.151 4.897 31.61 12.911zM383.332 260.568c8.014 8.415 12.911 19.545 12.911 31.61 0 12.021-4.897 23.597-12.911 31.61-16.473 16.473-46.303 16.473-63.221 0-8.014-8.459-12.911-20.035-12.911-31.61s4.897-23.196 12.911-31.61c8.504-8.014 20.035-12.911 31.61-12.911s23.151 4.897 31.61 12.911z"/>
<glyph unicode="" glyph-name="wallet" d="M911.826 5.788h-846.196c-37.003 0-65.629 42.124-65.629 78.429v590.429c0 15.825 6.284 52.596 65.629 52.596h846.196c59.346 0 65.629-36.538 65.629-52.364v-203.636c0-12.854-10.42-23.272-23.272-23.272s-23.272 10.42-23.272 23.272v0 203.636c0.087 0.455 0.137 0.978 0.137 1.513s-0.050 1.058-0.146 1.565l0.008-0.052c-4.25 1.919-9.214 3.037-14.439 3.037-1.473 0-2.925-0.089-4.351-0.262l0.172 0.017h-846.662c-15.36 0-19.084-3.025-19.084-3.025-0.037-0.453-0.058-0.98-0.058-1.513s0.021-1.060 0.062-1.581l-0.004 0.069v-590.429c0-14.196 12.8-31.884 19.084-31.884h846.196c6.516 0 19.084 17.222 19.084 31.884v177.571c0 12.854 10.42 23.272 23.272 23.272s23.272-10.42 23.272-23.272v0-176.873c0-37.003-28.625-79.127-65.629-79.127zM1000.728 238.515h-372.364c-12.854 0-23.272 10.42-23.272 23.272v0 209.454c0 12.854 10.42 23.272 23.272 23.272v0h372.364c12.854 0 23.272-10.42 23.272-23.272v0-209.454c0-12.854-10.42-23.272-23.272-23.272v0zM651.636 285.060h325.818v162.909h-325.818zM744.728 680.697c-12.854 0-23.272 10.42-23.272 23.272v0 130.56c-0.228 2.942-1.827 5.467-4.153 6.96l-0.036 0.022c-2.017 1.56-4.582 2.5-7.366 2.5-1.105 0-2.175-0.148-3.191-0.425l0.085 0.020-631.389-155.927c-1.416-0.307-3.043-0.482-4.71-0.482-12.854 0-23.272 10.42-23.272 23.272 0 10.552 7.022 19.463 16.647 22.316l0.165 0.041 629.993 154.996c4.929 1.516 10.594 2.388 16.464 2.388 12.191 0 23.503-3.765 32.837-10.195l-0.195 0.127c14.622-9.98 24.213-26.398 24.668-45.080l0.002-0.068v-131.026c0-12.854-10.42-23.272-23.272-23.272v0z"/>
<glyph unicode="" glyph-name="renew" horiz-adv-x="602" d="M1.445 716.896c-1.394 4.259-0.325 9.111 3.205 12.385l225.348 211.935c4.942 4.583 12.827 4.468 17.533-0.344s4.589-12.487-0.353-17.069l-210.955-198.398h350.768c118.038 0 214.155-93.791 214.155-209.225v-14.658c0-6.642-5.509-12.024-12.308-12.024s-12.308 5.382-12.308 12.024v14.773c0 102.036-84.982 185.062-189.423 185.062h-343.329l202.433-191.131c4.923-4.581 5.040-12.253 0.352-17.063-2.462-2.52-5.626-3.779-8.908-3.779-3.047 0-6.212 1.145-8.557 3.435l-224.471 211.859c-3.379 3.195-4.629 7.974-3.186 12.22zM600.555 179.105c1.394-4.259 0.325-9.111-3.205-12.385l-225.348-211.935c-4.942-4.583-12.827-4.468-17.533 0.344s-4.589 12.487 0.353 17.069l210.955 198.398h-350.768c-118.038 0-214.155 93.791-214.155 209.225v14.658c0 6.642 5.509 12.024 12.308 12.024s12.308-5.382 12.308-12.024v-14.773c0-102.036 84.982-185.062 189.423-185.062h343.329l-202.433 191.131c-4.923 4.581-5.040 12.253-0.352 17.063 2.462 2.52 5.626 3.779 8.908 3.779 3.047 0 6.212-1.145 8.557-3.435l224.471-211.859c3.379-3.195 4.629-7.974 3.186-12.22z"/>
<glyph unicode="" glyph-name="upload" horiz-adv-x="826" d="M598.253 457.486l29.872 28.956-214.711 208.154-214.709-208.154 29.872-28.956 163.714 158.712v-648.312h42.248v648.312zM310.189 166.079v41.724h-268.388v709.324h743.225v-709.324h-268.386v-41.724h309.677v792.774h-825.806v-792.774z"/>
<glyph unicode="" glyph-name="calendar" d="M954.112-64h-883.968c-10.496 0-18.944 12.032-18.944 26.88v893.44c0 14.848 8.448 26.88 18.944 26.88h883.712c10.496 0 18.944-12.032 18.944-26.88v-893.44c0-14.848-8.192-26.88-18.688-26.88zM89.088-9.984h844.8v839.168h-844.8zM76.8 576h875.52v-51.2h-875.52v51.2zM202.24 678.4c-13.085 1.248-23.238 12.184-23.238 25.491 0 1.121 0.072 2.226 0.212 3.309l-0.013-0.128v224.256c-0.126 0.955-0.198 2.060-0.198 3.181 0 13.307 10.153 24.243 23.135 25.483l0.103 0.008c13.085-1.248 23.238-12.184 23.238-25.491 0-1.121-0.072-2.226-0.212-3.309l0.013 0.128v-224c0.147-1.032 0.231-2.223 0.231-3.434 0-13.319-10.171-24.262-23.169-25.486l-0.102-0.008zM483.84 678.4c-13.085 1.248-23.238 12.184-23.238 25.491 0 1.121 0.072 2.226 0.212 3.309l-0.013-0.128v224.256c-0.126 0.955-0.198 2.060-0.198 3.181 0 13.307 10.153 24.243 23.135 25.483l0.103 0.008c13.085-1.248 23.238-12.184 23.238-25.491 0-1.121-0.072-2.226-0.212-3.309l0.013 0.128v-224c0.147-1.032 0.231-2.223 0.231-3.434 0-13.319-10.171-24.262-23.169-25.486l-0.102-0.008zM765.44 678.4c-13.085 1.248-23.238 12.184-23.238 25.491 0 1.121 0.072 2.226 0.212 3.309l-0.013-0.128v224.256c-0.326 1.468-0.512 3.154-0.512 4.884 0 13.007 10.545 23.552 23.552 23.552s23.552-10.545 23.552-23.552c0-1.73-0.186-3.416-0.54-5.040l0.028 0.156v-224c0.147-1.032 0.231-2.223 0.231-3.434 0-13.319-10.171-24.262-23.169-25.486l-0.102-0.008z"/>
<glyph unicode="" glyph-name="questionmark" d="M512.061-64v20.427l-0.061-20.427c-282.326 0-512 229.664-512 511.99s229.674 512.010 512 512.010c282.326 0 512-229.685 512-512.010s-229.654-511.99-511.939-511.99zM512 919.145c-259.794 0-471.145-211.361-471.145-471.156s211.351-471.135 471.145-471.135h0.061c259.764 0 471.084 211.341 471.084 471.135s-211.351 471.156-471.145 471.156zM507.582 347.723c-11.011 0-19.948 9.223-19.948 20.587v100.425c0 11.364 8.937 20.587 19.948 20.587 52.563 0 95.322 44.119 95.322 98.367 0 54.258-42.759 98.408-95.322 98.408s-95.322-44.15-95.322-98.408c0-11.364-8.937-20.587-19.948-20.587s-19.948 9.223-19.948 20.587c0 76.966 60.652 139.583 135.218 139.583s135.218-62.617 135.218-139.583c0-69.956-50.129-128.043-115.27-138.028v-81.351c0-11.364-8.937-20.587-19.948-20.587zM541.177 222.743c0-21.58-16.951-39.075-37.861-39.075s-37.861 17.494-37.861 39.075c0 21.58 16.951 39.075 37.861 39.075s37.861-17.494 37.861-39.075z"/>
<glyph unicode="" glyph-name="id" horiz-adv-x="1229" d="M154.522 194.285h274.637v278.873h-274.637v-278.873zM210.502 416.011h162.677v-164.735h-162.677v164.735zM523.162 298.067h597.197v-56.991h-597.197zM523.162 401.72h351.437v-56.991h-351.437zM747.18 952.202h-265.56v-140.372h-481.62v-868.031h1228.8v868.031h-481.62v140.372zM537.6 895.211h153.6v-233.954h-153.6v233.954zM1172.82 754.838v-754.049h-1116.84v754.049h425.64v-137.099h265.56v137.099h425.64z"/>
<glyph unicode="" glyph-name="name" d="M512 391.111c-286.72 0-512-112.64-512-256v-170.667c0-15.929 12.516-28.444 28.444-28.444h967.111c15.929 0 28.444 12.516 28.444 28.444v170.667c0 143.36-225.28 256-512 256zM978.489-18.489h-932.978v153.6c0 96.711 194.56 210.489 466.489 210.489s466.489-113.778 466.489-210.489v-153.6zM768 704c0 141.084-114.916 256-256 256s-256-114.916-256-256c0-141.084 114.916-256 256-256s256 114.916 256 256zM301.511 704c0 109.227 101.262 210.489 210.489 210.489s210.489-101.262 210.489-210.489c0-109.227-101.262-210.489-210.489-210.489s-210.489 101.262-210.489 210.489z"/>
<glyph unicode="" glyph-name="nationality" horiz-adv-x="1081" d="M76.077 311.57h949.536v-43.378h-949.536zM76.077 627.808h949.536v-43.378h-949.536zM588.877-57.984l-24.192 20.928c-9.394 2.304 188.622 234.432 188.622 510.016 0 274.848-195.424 454.56-197.408 456.352l32.818 23.744c8.512-7.68 207.968-191.2 207.968-480.096 0-287.712-199.296-521.152-207.808-530.944zM512.621-57.984c-8.48 9.792-207.68 243.232-207.68 530.976 0 288.896 199.456 472.416 207.968 480.096l32.818-23.744c-1.984-1.792-197.408-182.016-197.408-456.352 0-275.936 197.888-507.712 199.872-510.016l-35.57-20.96zM550.829-63.456c-282.304 0-512 229.44-512 511.456s229.664 511.456 512 511.456c282.336 0 512-229.44 512-511.456s-229.696-511.456-512-511.456zM550.829 927.456c-264.704 0-468.622-215.072-468.622-479.456s203.95-479.456 468.622-479.456c264.672 0 468.622 215.072 468.622 479.456s-203.95 479.456-468.622 479.456z"/>
<glyph unicode="" glyph-name="add" d="M512 960c-282.326 0-512-229.691-512-511.99 0-282.32 229.674-512.010 512-512.010s512 229.691 512 512.010c0 282.32-229.674 511.99-512 511.99zM512-1.251c-247.741 0-449.27 201.567-449.27 449.282 0 247.736 201.551 449.24 449.27 449.24s449.27-201.526 449.27-449.261c0-247.736-201.53-449.261-449.27-449.261zM703.012 479.375h-159.647v159.665c0 17.334-14.051 31.364-31.365 31.364-17.334 0-31.365-14.030-31.365-31.364v-159.665h-159.647c-17.334 0-31.365-14.030-31.365-31.364 0-17.313 14.031-31.364 31.365-31.364h159.647v-159.665c0-17.313 14.031-31.364 31.365-31.364 17.313 0 31.365 14.051 31.365 31.364v159.665h159.647c17.313 0 31.365 14.051 31.365 31.364 0 17.334-14.051 31.364-31.365 31.364z"/>
<glyph unicode="" glyph-name="export1" horiz-adv-x="666" d="M156.612 605.538h-156.612v-669.538h665.6v669.538h-156.612v-39.385h117.459v-590.769h-587.294v590.769h117.459v39.385zM352.234 251.077h-39.153v633.461l-139.746-140.573-27.685 27.849 187.080 188.187 187.080-188.187-27.685-27.849-139.889 140.717v-633.604z"/>
<glyph unicode="" glyph-name="size" d="M976-41.6h-928c-12.8 0-25.6 9.6-25.6 25.6v928c0 12.8 9.6 22.4 25.6 22.4h928c12.8 0 25.6-9.6 25.6-22.4v-928c0-12.8-12.8-25.6-25.6-25.6zM73.6 6.4h880v880h-880v-880zM600.051 394.243l267.001-267.001-45.255-45.255-267.001 267.001 45.255 45.255zM873.6 86.4h-246.4v48h198.4v198.4h48zM190.908 802.712l267.001-267.001-45.255-45.255-267.001 267.001 45.255 45.255zM198.4 563.2h-48v246.4h246.4v-48h-198.4z"/>
<glyph unicode="" glyph-name="pin" horiz-adv-x="829" d="M400.696 750.933c-111.989 0-203.43-94.933-203.43-211.2s91.441-211.2 203.43-211.2c111.989 0 203.43 94.933 203.43 211.2s-91.441 211.2-203.43 211.2zM400.696 381.867c-84.249 0-152.059 71.467-152.059 157.867s67.81 157.867 152.059 157.867c84.249 0 152.059-70.4 152.059-157.867s-67.81-157.867-152.059-157.867zM782.898 454.4c1.027 4.267 2.055 8.533 3.082 12.8 5.137 25.6 7.192 51.2 7.192 76.8 0 229.333-183.909 414.933-405.833 406.4-196.238-6.4-357.544-164.267-377.065-366.933-4.11-39.467-2.055-78.933 5.137-116.267 0 0 1.027-5.333 3.082-13.867 6.165-27.733 15.411-54.4 25.686-80 40.070-99.2 128.428-251.733 319.529-416 10.274-8.533 23.631-13.867 36.987-13.867s26.713 5.333 36.987 13.867c191.101 165.333 279.46 317.867 318.502 416 12.329 26.667 20.548 53.333 26.713 81.067zM734.609 476.8c0 0-1.027-4.267-2.055-9.6-5.137-24.533-13.357-48-23.631-70.4-36.987-94.933-121.236-238.933-304.118-396.8-3.082-2.133-5.137-2.133-8.219 0-182.882 157.867-267.13 301.867-305.145 396.8-10.274 22.4-17.466 45.867-22.603 70.4-1.027 5.333-2.055 8.533-2.055 9.6 0 0 0 1.067 0 1.067-6.165 33.067-8.219 67.2-4.11 101.333 15.411 174.933 156.169 312.533 325.694 318.933 193.156 6.4 353.434-154.667 353.434-354.133 0-22.4-3.082-44.8-7.192-67.2z"/>
<glyph unicode="" glyph-name="pencil" d="M864 960c88.364 0 160-71.634 160-160 0-36.020-11.91-69.258-32-96l-64-64-224 224 64 64c26.742 20.090 59.978 32 96 32zM64 224l-64-288 288 64 592 592-224 224-592-592zM715.578 596.422l-448-448-55.156 55.156 448 448 55.156-55.156z"/>
<glyph unicode="" glyph-name="download" d="M992 277.333c-17.664 0-32-15.292-32-34.133v-238.933h-896v238.933c0 18.842-14.336 34.133-32 34.133s-32-15.292-32-34.133v-273.067c0-18.842 14.336-34.133 32-34.133h960c17.664 0 32 15.292 32 34.133v273.067c0 18.842-14.336 34.133-32 34.133zM489.152 201.289c12.434-12.321 33.242-12.449 45.676 0l223.715 220.825c12.626 12.513 12.594 32.772 0 45.253-12.594 12.513-33.051 12.513-45.644 0l-168.609-166.419v627.048c0 17.666-14.448 32.004-32.283 32.004s-32.283-14.338-32.283-32.004v-627.048l-168.609 166.419c-12.626 12.513-33.051 12.513-45.644 0-12.626-12.513-12.626-32.772 0-45.253l223.683-220.825z"/>
<glyph unicode="" glyph-name="danger" d="M1010.806 147.212l-420.028 696.584c-16.548 27.442-46.734 44.49-78.78 44.49s-62.232-17.048-78.782-44.492l-420.026-696.582c-17.102-28.364-17.608-63.9-1.322-92.74 16.29-28.84 46.982-46.756 80.102-46.756h840.056c33.12 0 63.814 17.916 80.104 46.758 16.286 28.842 15.78 64.378-1.324 92.738zM954.078 87.256c-4.484-7.938-12.934-12.872-22.052-12.872h-840.056c-9.118 0-17.568 4.932-22.050 12.87-4.484 7.94-4.344 17.724 0.362 25.53l420.030 696.584c4.556 7.554 12.866 12.248 21.688 12.248 8.82 0 17.13-4.694 21.686-12.248l420.026-696.584c4.71-7.808 4.85-17.59 0.366-25.528zM512.308 613.99c-25.36 0-45.152-13.608-45.152-37.732 0-73.604 8.658-179.372 8.658-252.978 0.002-19.174 16.704-27.214 36.496-27.214 14.844 0 35.874 8.040 35.874 27.214 0 73.604 8.658 179.372 8.658 252.978 0 24.122-20.41 37.732-44.534 37.732zM512.93 253.388c-27.214 0-47.628-21.648-47.628-47.628 0-25.36 20.412-47.628 47.628-47.628 25.36 0 47.010 22.268 47.010 47.628 0 25.98-21.652 47.628-47.010 47.628z"/>
<glyph unicode="" glyph-name="expire" horiz-adv-x="1132" d="M491.864 511.728h-195.229v-43.574h240.187v326.373h-44.958zM970.44 408.674c40.882 197.257-56.316 397.195-239.29 492.22s-408.562 62.723-555.369-79.524c-146.807-142.246-180.203-360.884-82.218-538.257s304.241-271.641 507.773-232.077c60.808-83.503 166.938-124.077 270.187-103.294s183.933 98.961 205.408 199.027c21.474 100.065-20.356 202.943-106.491 261.905zM509.622 85.678c-172.049-0.132-327.232 100.217-393.167 254.24s-29.631 331.378 91.977 449.338c121.609 117.96 304.564 153.288 463.53 89.504s262.623-214.113 262.623-380.868c0.005-22.073-1.799-44.111-5.395-65.906-100.868 45.561-220.364 25.134-299.066-51.122s-99.815-192.069-52.841-289.848c-22.484-3.526-45.222-5.31-67.999-5.338h0.337zM817.808-14.107c-89.050-0.132-169.406 51.764-203.568 131.47s-15.397 171.511 47.539 232.573c62.936 61.062 157.636 79.344 239.908 46.314s135.897-110.859 135.852-197.17c-0.186-117.666-98.555-213.008-219.956-213.188h0.225zM795.104 339.391h53.895v-204.255h-53.895v204.255zM795.104 99.731h53.895v-53.895h-53.895v53.895z"/>
<glyph unicode="" glyph-name="copy" d="M640 704v256h-448l-192-192v-576h384v-256h640v768h-384zM192 869.49v-101.49h-101.49l101.49 101.49zM64 256v448h192v192h320v-192l-192-192v-256h-320zM576 613.49v-101.49h-101.49l101.49 101.49zM960 0h-512v448h192v192h320v-640z"/>
<glyph unicode="" glyph-name="calendar2" horiz-adv-x="947" d="M927.953-64h-908.525c-10.732 0-19.429 12.035-19.429 26.887v893.425c0 14.852 8.697 26.887 19.429 26.887h908.34c10.732 0 19.429-12.035 19.429-26.887v-893.425c0.185-14.852-8.512-26.887-19.244-26.887zM51.2-12.8h844.8v844.8h-844.8v-844.8zM25.6 576h875.52v-51.2h-875.52v51.2zM227.838 678.4c-12.726 0-23.038 12.812-23.038 28.623v224.353c0 15.811 10.312 28.623 23.038 28.623s23.038-12.812 23.038-28.623v-224.081c0.219-16.084-10.312-28.896-23.038-28.896zM483.84 678.4c-12.727 0-23.040 12.812-23.040 28.623v224.353c0 15.811 10.313 28.623 23.040 28.623s23.040-12.812 23.040-28.623v-224.081c0-16.084-10.313-28.896-23.040-28.896zM739.84 678.4c-12.727 0-23.040 12.812-23.040 28.623v224.353c0 15.811 10.313 28.623 23.040 28.623s23.040-12.812 23.040-28.623v-224.081c0-16.084-10.313-28.896-23.040-28.896z"/>
<glyph unicode="" glyph-name="transaction" d="M921.501 908.687v-153.836c-169.552 226.213-490.383 272.145-716.595 102.593-175.528-131.565-247.716-360.347-179.476-568.826 2.291-7.023 8.838-11.775 16.226-11.773 1.804-0.002 3.598 0.292 5.306 0.87 8.949 2.933 13.829 12.564 10.903 21.516-15.693 48.027-23.664 98.242-23.615 148.768-0.051 263.855 213.804 477.793 477.659 477.842 156.386 0.030 302.889-76.481 392.222-204.842h-187.38v-34.125h238.875v221.813h-34.125zM998.573 607.38c-3.18 8.87-12.95 13.484-21.821 10.304-8.523-3.056-13.174-12.236-10.598-20.917 82.143-250.802-54.581-520.707-305.383-602.848-200.506-65.669-420.348 7.928-540.901 181.080h187.38v34.125h-238.875v-221.813h34.125v153.836c169.552-226.213 490.383-272.145 716.593-102.593 175.531 131.565 247.716 360.347 179.478 568.826zM512.001 465.061c-65.964 0-119.438 53.474-119.438 119.438s53.474 119.438 119.438 119.438c65.932-0.075 119.363-53.506 119.438-119.438h34.125c-0.113 78.153-58.84 143.788-136.5 152.556v52.194h-34.125v-52.194c-84.255-9.692-144.701-85.85-135.009-170.105 8.894-77.325 74.237-135.769 152.072-136.014 65.964 0 119.438-53.474 119.438-119.438s-53.474-119.438-119.438-119.438c-65.964 0-119.438 53.474-119.438 119.438h-34.125c0.113-78.153 58.84-143.788 136.5-152.556v-52.194h34.125v52.194c84.255 9.692 144.701 85.85 135.009 170.105-8.896 77.327-74.237 135.769-152.072 136.014z"/>
<glyph unicode="" glyph-name="user" horiz-adv-x="402" d="M18.689 668.578c-32.739-29.147-14.308-150.701-5.578-178.769 11.641-37.783 42.682-88.737 47.29-96.077 5.82-11.875 9.458-24.181 10.913-36.92l43.653-381.071c2.425-22.238 23.281-38.863 48.503-38.863h75.422c24.979 0 45.835 16.841 48.503 38.863l43.653 381.071c1.455 12.738 5.093 25.261 10.913 36.92 4.608 7.557 35.65 58.294 47.29 96.077 8.488 28.068 27.162 149.622-5.578 178.769-8.973 7.988-14.066 12.307-24.736 19.431-38.075 25.045-83.91 41.454-85.85 42.317-9.458 3.454-20.129 0.648-25.949-6.693l-46.32-55.919-45.593 55.919c-5.82 7.341-16.733 9.932-25.949 6.693-1.94-0.648-47.533-17.272-85.85-42.317-10.671-7.125-16.006-11.443-24.736-19.431zM50.216 641.374c8.003 7.125 11.398 9.932 19.401 15.113 20.856 13.818 45.108 24.829 60.629 31.306l52.868-64.771c4.123-4.966 10.671-7.988 17.704-7.988s13.581 3.023 17.704 7.988l52.868 64.771c15.278-6.477 39.53-17.488 60.629-31.306 8.003-5.182 11.398-7.988 19.401-15.113 10.186-14.681 7.033-101.259-5.335-141.201-10.913-35.408-43.41-87.657-43.895-88.089-0.243-0.432-0.728-1.080-0.97-1.727-7.76-15.761-12.853-32.386-14.793-49.658l-43.653-381.071c-0.243-2.159-2.183-3.67-4.608-3.67h-75.422c-2.425 0-4.365 1.511-4.608 3.67l-43.653 381.071c-1.94 17.056-6.79 33.897-14.793 49.658-0.243 0.648-0.485 1.080-0.97 1.727-0.243 0.432-32.982 52.897-43.895 88.305-11.641 39.726-14.793 126.304-4.608 140.986zM201.52 769.829c0.368 0 0.919 0 1.287 0 0.184 0 0.735 0 0.919 0 0.368 0 0.735 0 1.103 0 22.798 0.352 41.184 8.085 54.973 23.024 29.049 31.109 24.637 83.486 24.085 89.813-2.942 57.122-44.309 77.334-79.058 77.334-0.552 0-1.103 0-1.655 0-0.368 0-0.919 0-1.655 0-34.565 0-76.116-20.212-79.058-77.334-0.552-6.327-4.964-58.528 24.085-89.637 13.789-14.94 32.359-22.673 54.973-23.2zM155.74 879.678c0 0.352 0 0.703 0 1.055 2.022 42.885 32.726 47.455 45.78 47.455h0.919c0.368 0 0.919 0 1.287 0h0.919c13.054 0 43.758-4.57 45.78-47.455 0-0.352 0-0.703 0-0.879 1.287-12.127 1.103-47.631-15.812-65.734-7.538-8.085-17.834-12.127-31.255-12.127-0.184 0-0.368 0-0.552 0-13.421 0.176-23.717 4.042-31.255 12.127-16.915 17.927-17.099 53.431-15.812 65.558z"/>
<glyph unicode="" glyph-name="lock" d="M779.134 559.324v133.544c0 147.547-119.613 267.131-267.134 267.131-147.544 0-267.131-119.585-267.131-267.131v-133.544c-49.17 0-89.039-39.869-89.039-89.039v-445.241c0-49.181 39.869-89.045 89.039-89.045h534.265c49.173 0 89.033 39.866 89.033 89.045v445.241c0.003 49.17-39.861 89.039-89.033 89.039zM333.913 692.869c0 98.368 79.738 178.087 178.087 178.087 98.354 0 178.092-79.715 178.092-178.087v-133.544h-356.179v133.544zM779.134 25.048h-534.265v445.215h534.265v-445.215zM467.478 215.481v-56.866c0-24.568 19.949-44.522 44.522-44.522 24.568 0 44.522 19.954 44.522 44.522v56.866c26.476 15.429 44.522 43.828 44.522 76.693 0 49.193-39.875 89.067-89.045 89.067s-89.039-39.875-89.039-89.067c0-32.865 18.029-61.264 44.517-76.693z"/>
<glyph unicode="" glyph-name="checkmark-circle" d="M455.111 49.778c-121.587 0-235.843 47.332-321.835 133.276s-133.276 200.249-133.276 321.788c0 121.587 47.332 235.843 133.276 321.835s200.249 133.324 321.835 133.324c121.587 0 235.843-47.332 321.835-133.324s133.276-200.249 133.276-321.835c0-121.587-47.332-235.843-133.276-321.788s-200.249-133.276-321.835-133.276zM455.111 912.094c-224.537 0-407.205-182.667-407.205-407.205s182.667-407.205 407.205-407.205c224.537 0 407.205 182.667 407.205 407.205s-182.667 407.205-407.205 407.205zM390.499 277.333c-5.959 0-11.917 2.439-16.479 7.268l-139.655 149.347c-9.078 9.708-9.078 25.489 0 35.196s23.835 9.708 32.912 0l123.176-131.724 309.383 330.854c9.078 9.708 23.835 9.708 32.912 0s9.078-25.489 0-35.196l-325.863-348.477c-4.562-4.879-10.521-7.268-16.479-7.268h0.093z"/>
<glyph unicode="" glyph-name="certificate" horiz-adv-x="1280" d="M96 896.271c-17.664 0-32-14.275-32-31.864v-828.475c0-17.589 14.336-31.864 32-31.864h1088c17.664 0 32 14.275 32 31.864v828.475c0 17.589-14.336 31.864-32 31.864h-1088zM1184-59.661h-1088c-52.928 0-96 42.889-96 95.593v828.475c0 52.704 43.072 95.593 96 95.593h1088c52.928 0 96-42.889 96-95.593v-828.475c0-52.704-43.072-95.593-96-95.593zM618.305 699.661h-390.508c-17.963 0-32.542 14.579-32.542 32.542s14.579 32.542 32.542 32.542h390.508c17.963 0 32.542-14.579 32.542-32.542s-14.579-32.542-32.542-32.542zM618.305 504.407h-390.508c-17.963 0-32.542 14.579-32.542 32.542s14.579 32.542 32.542 32.542h390.508c17.963 0 32.542-14.579 32.542-32.542s-14.579-32.542-32.542-32.542zM618.305 395.932h-390.508c-17.963 0-32.542 14.579-32.542 32.542s14.579 32.542 32.542 32.542h390.508c17.963 0 32.542-14.579 32.542-32.542s-14.579-32.542-32.542-32.542zM618.305 265.763h-390.508c-17.963 0-32.542 14.579-32.542 32.542s14.579 32.542 32.542 32.542h390.508c17.963 0 32.542-14.579 32.542-32.542s-14.579-32.542-32.542-32.542zM553.22 135.593h-325.424c-17.963 0-32.542 14.579-32.542 32.542s14.579 32.542 32.542 32.542h325.424c17.963 0 32.542-14.579 32.542-32.542s-14.579-32.542-32.542-32.542zM987.445 285.033c-12.154 12.379-32.076 12.379-44.23 0l-40.534-41.010v208.924h11.778l50.871-37.519 50.996 37.519h11.653v-208.924l-40.408 41.010h-0.125zM854.629 648.221l30.51 22.473 11.778 36.439h37.777l30.573 22.6 30.635-22.6h37.777l11.778-36.439 30.51-22.473-11.653-36.503 11.653-36.439-30.51-22.473-11.778-36.439h-37.777l-30.635-22.6-30.573 22.6h-37.777l-11.778 36.439-30.51 22.473 11.653 36.439-11.653 36.503zM1149.705 672.472l-50.996 37.455-19.421 60.69h-62.962l-50.996 37.519-50.871-37.519h-63.025l-19.421-60.69-50.996-37.455 19.546-60.754-19.546-60.69 50.996-37.455 8.207-25.838c-0.125-0.952-0.125-1.968-0.125-2.984v-317.417c0-12.824 7.706-24.378 19.358-29.266 11.778-4.952 25.185-2.285 34.206 6.856l71.733 72.688 71.858-72.688c6.014-6.158 13.971-9.332 22.115-9.332 4.072 0 8.082 0.762 12.029 2.476 11.653 4.888 19.296 16.442 19.296 29.266v317.417c0 1.016-0.063 2.095-0.125 2.984l8.27 25.838 50.996 37.455-19.546 60.69 19.546 60.754h-0.125z"/>
<glyph unicode="" glyph-name="companies-2" horiz-adv-x="853" d="M402.516 396.478h48.302v48.302h-48.302zM499.119 396.478h48.302v48.302h-48.302zM595.723 396.478h48.302v48.302h-48.302zM708.428 396.478h48.302v48.302h-48.302zM402.516 251.572h48.302v48.302h-48.302zM499.119 251.572h48.302v48.302h-48.302zM595.723 251.572h48.302v48.302h-48.302zM708.428 251.572h48.302v48.302h-48.302zM402.516 106.667h48.302v48.302h-48.302zM499.119 106.667h48.302v48.302h-48.302zM595.723 106.667h48.302v48.302h-48.302zM708.428 106.667h48.302v48.302h-48.302zM351.373-3.738v556.622h451.765v-556.622h-451.765zM301.176 578.185v-581.923h-250.98v809.632h351.373v-202.408h-75.294c-13.854 0-25.098-11.335-25.098-25.301zM451.765 603.486v50.602h200.784v-50.602h-200.784zM602.353 719.516l75.294 75.903 75.294-75.903v-116.030h-50.196v75.903c0 13.966-11.244 25.301-25.098 25.301h-75.294v14.826zM828.235 603.486h-25.098v126.505c0 6.73-2.66 13.157-7.379 17.913l-93.013 93.816v90.729c0 13.966-11.244 25.301-25.098 25.301s-25.098-11.335-25.098-25.301v-90.729l-93.064-93.816c-4.718-4.757-7.329-11.183-7.329-17.913v-25.301h-100.392v126.505c0 13.966-11.244 25.301-25.098 25.301h-401.569c-13.854 0-25.098-11.335-25.098-25.301v-860.234c0-13.966 11.244-25.301 25.098-25.301h803.137c13.854 0 25.098 11.335 25.098 25.301v607.224c0 13.966-11.244 25.301-25.098 25.301zM301.176 654.088h50.196v101.204h-50.196zM200.784 654.088h50.196v101.204h-50.196zM100.392 654.088h50.196v101.204h-50.196zM100.392 502.282h50.196v101.204h-50.196zM200.784 502.282h50.196v101.204h-50.196zM100.392 350.476h50.196v101.204h-50.196zM200.784 350.476h50.196v101.204h-50.196zM100.392 198.67h50.196v101.204h-50.196zM200.784 198.67h50.196v101.204h-50.196zM100.392 46.864h50.196v101.204h-50.196zM200.784 46.864h50.196v101.204h-50.196z"/>
<glyph unicode="" glyph-name="companies1" horiz-adv-x="960" d="M707.368 606.275h50.526v50.526h-50.526zM707.368 505.223h50.526v50.526h-50.526zM707.368 404.17h50.526v50.526h-50.526zM707.368 303.117h50.526v50.526h-50.526zM707.368 101.012h50.526v50.526h-50.526zM707.368 202.065h50.526v50.577h-50.526zM303.158 606.275h50.526v50.526h-50.526zM303.158 505.223h50.526v50.526h-50.526zM303.158 404.17h50.526v50.526h-50.526zM303.158 303.117h50.526v50.526h-50.526zM303.158 101.012h50.526v50.526h-50.526zM303.158 202.065h50.526v50.577h-50.526zM202.105 606.275h50.577v50.526h-50.577zM202.105 505.223h50.577v50.526h-50.577zM202.105 404.17h50.577v50.526h-50.577zM202.105 303.117h50.577v50.526h-50.577zM202.105 101.012h50.577v50.526h-50.577zM202.105 202.065h50.577v50.577h-50.577zM404.211 606.275h50.526v50.526h-50.526zM404.211 505.223h50.526v50.526h-50.526zM404.211 404.17h50.526v50.526h-50.526zM404.211 303.117h50.526v50.526h-50.526zM404.211 101.012h50.526v50.526h-50.526zM404.211 202.065h50.526v50.577h-50.526zM101.053 732.591c0 16.623 14.501 36.076 30.417 40.825l424.32 127.326v-900.783h-454.737v732.632zM828.278 724.608c16.067-5.356 30.669-25.617 30.669-42.543v-682.105h-252.632v798.619l221.962-73.971zM934.737-0.040h-25.263v682.105c0 38.552-28.648 78.265-65.229 90.493l-237.928 79.326v82.863c0 7.983-3.789 15.512-10.206 20.261s-14.703 6.215-22.333 3.941l-456.859-137.078c-37.238-11.166-66.392-50.375-66.392-89.229v-732.632h-25.263c-13.945 0-25.263-11.318-25.263-25.263s11.318-25.263 25.263-25.263h909.474c13.945 0 25.263 11.318 25.263 25.263s-11.318 25.263-25.263 25.263v-0.051z"/>
<glyph unicode="" glyph-name="plane" horiz-adv-x="960" d="M479.949 49.719c2.071 0 4.092-0.253 6.113-0.759l170.71-42.735v54.569l-111.702 68.477c-8.285 5.057-12.933 14.414-11.923 24.073l22.734 227.583c0.859 8.547 5.961 16.032 13.54 19.977 7.578 3.894 16.672 3.742 24.099-0.506l315.857-180.65v45.921l-344.806 295.858c-5.608 4.805-8.841 11.834-8.841 19.218 0 242.654-40.821 328.731-75.781 328.731s-75.781-86.077-75.781-328.731c0-7.384-3.233-14.414-8.841-19.218l-344.806-295.858v-45.921l315.857 180.751c7.427 4.248 16.52 4.4 24.099 0.455s12.731-11.43 13.54-19.977l22.734-227.583c0.96-9.66-3.688-19.016-11.923-24.073l-111.702-68.477v-54.569l170.71 42.735c2.021 0.506 4.092 0.759 6.113 0.759v-0.051zM682.033-51.429c-2.021 0-4.092 0.253-6.113 0.759l-195.971 49.057-195.971-49.057c-7.528-1.821-15.56-0.202-21.674 4.552-6.113 4.855-9.7 12.188-9.7 19.977v101.148c0 8.8 4.597 16.993 12.075 21.545l110.237 67.567-17.278 173.014-319.848-183.027c-7.831-4.4-17.43-4.4-25.21 0.152s-12.58 12.846-12.58 21.848v101.148c0 7.384 3.233 14.414 8.841 19.218l344.856 295.908c0.657 124.311 11.721 217.822 32.99 278.106 26.119 73.99 65.122 89.516 93.312 89.516s67.193-15.526 93.312-89.516c21.269-60.335 32.333-153.795 32.99-278.106l344.856-295.908c5.608-4.805 8.841-11.834 8.841-19.218v-101.148c0-9.002-4.799-17.347-12.58-21.848-7.78-4.451-17.379-4.552-25.21-0.152l-319.848 183.027-17.278-173.014 110.237-67.567c7.477-4.602 12.075-12.745 12.075-21.545v-101.148c0-7.788-3.587-15.122-9.7-19.977-4.496-3.439-9.953-5.31-15.56-5.31h-0.101z"/>
<glyph unicode="" glyph-name="star" horiz-adv-x="1059" d="M529.643 194.943c4.826 0 9.71-1.177 14.065-3.59l270.654-147.597-48.905 293.488c-1.589 9.357 1.471 18.95 8.239 25.659l194.972 194.972-296.725 49.434c-9.298 1.53-17.243 7.474-21.48 15.89l-120.82 241.64-120.82-241.64c-4.237-8.416-12.182-14.301-21.48-15.89l-296.725-49.434 194.972-194.972c6.709-6.709 9.769-16.243 8.239-25.659l-48.905-293.488 270.654 147.597c4.414 2.413 9.24 3.59 14.065 3.59zM853.322-40.46c-4.826 0-9.651 1.177-14.065 3.59l-309.613 168.842-309.613-168.842c-9.887-5.414-21.951-4.649-31.132 1.883s-13.83 17.714-11.947 28.837l56.379 338.155-224.691 224.691c-7.768 7.768-10.593 19.303-7.239 29.778s12.3 18.244 23.187 20.068l338.332 56.379 140.417 280.835c5.002 9.946 15.183 16.243 26.306 16.243s21.363-6.297 26.306-16.243l140.417-280.835 338.332-56.379c10.887-1.824 19.833-9.534 23.187-20.068s0.589-22.010-7.239-29.778l-224.691-224.691 56.379-338.155c1.824-11.123-2.825-22.304-11.947-28.837-5.061-3.59-11.064-5.473-17.067-5.473z"/>
<glyph unicode="" glyph-name="writing" horiz-adv-x="986" d="M907.665 742.948l-44.543-44.493-138.693 138.693 44.543 44.493c18.522 18.522 43.152 28.702 69.322 28.702s50.8-10.18 69.372-28.702c18.522-18.522 28.702-43.152 28.702-69.322s-10.18-50.8-28.702-69.322v-0.050zM427.377 262.661l-217.947-79.253 79.253 217.946 400.637 400.636 138.694-138.693-400.637-400.636zM942.723 916.748c-27.908 27.907-65.002 43.252-104.43 43.252s-76.572-15.344-104.43-43.252l-484.161-484.16c-2.582-2.582-4.519-5.661-5.76-9.087l-99.315-273.116c-3.277-9.087-1.043-19.217 5.76-26.020 4.717-4.767 11.074-7.3 17.579-7.3 2.83 0 5.711 0.497 8.491 1.49l273.116 99.315c3.426 1.241 6.505 3.228 9.087 5.76l484.161 484.16c27.908 27.907 43.252 65.002 43.252 104.479s-15.344 76.572-43.252 104.479h-0.099zM878.929-41.978h-803.592c-41.536 0-75.337 33.801-75.337 75.337v803.592c0 41.536 33.801 75.337 75.337 75.337h502.245c13.862 0 25.112-11.25 25.112-25.112s-11.25-25.112-25.112-25.112h-502.245c-13.862 0-25.112-11.25-25.112-25.112v-803.592c0-13.862 11.25-25.112 25.112-25.112h803.592c13.862 0 25.112 11.25 25.112 25.112v502.245c0 13.862 11.25 25.112 25.112 25.112s25.112-11.25 25.112-25.112v-502.245c0-41.536-33.801-75.337-75.337-75.337z"/>
<glyph unicode="" glyph-name="envelope" d="M942.080 143.36v430.080c-11.981-13.414-24.781-25.805-38.605-36.966-100.045-76.902-179.61-139.981-238.592-189.338-19.046-16.077-34.509-28.57-46.49-37.478s-28.058-18.022-48.435-27.136c-20.378-9.114-39.526-13.722-57.344-13.722h-1.126c-17.92 0-37.069 4.608-57.344 13.722-20.378 9.114-36.454 18.227-48.435 27.136s-27.443 21.402-46.49 37.478c-58.982 49.254-138.547 112.333-238.592 189.338-13.824 11.162-26.726 23.552-38.605 36.966v-430.080c0-4.813 1.741-9.011 5.325-12.595s7.782-5.325 12.595-5.325h824.32c4.813 0 9.011 1.741 12.595 5.325 3.482 3.584 5.325 7.782 5.222 12.595v0zM942.080 731.955v13.722c0 0-0.102 2.458-0.307 7.27s-0.717 7.168-1.741 6.963c-0.922-0.205-1.946 1.536-3.072 5.018-1.126 3.584-2.765 4.915-5.018 4.198s-4.915-0.307-7.885 1.434h-824.32c-4.813 0-9.011-1.741-12.595-5.325s-5.325-7.782-5.325-12.595c0-62.771 27.443-115.712 82.33-159.027 72.090-56.73 146.944-115.917 224.563-177.562 2.253-1.843 8.806-7.373 19.558-16.486 10.854-9.114 19.456-16.179 25.702-20.992 6.349-4.813 14.643-10.752 24.883-17.613 10.24-6.963 19.763-12.083 28.262-15.36 8.602-3.379 16.589-5.018 24.064-5.018h1.126c7.475 0 15.462 1.638 24.064 5.018s18.022 8.499 28.262 15.36c10.24 6.861 18.534 12.8 24.883 17.613 6.349 4.915 14.95 11.878 25.702 20.992 10.854 9.114 17.306 14.643 19.558 16.486 77.619 61.542 152.474 120.73 224.563 177.562 20.173 16.077 38.912 37.581 56.32 64.717 17.715 27.136 26.419 51.61 26.419 73.626v0zM1013.76 752.64v-609.28c0-24.678-8.806-45.773-26.317-63.283s-38.605-26.317-63.283-26.317h-824.32c-24.678 0-45.773 8.806-63.283 26.317s-26.317 38.605-26.317 63.283v609.28c0 24.678 8.806 45.773 26.317 63.283s38.605 26.317 63.283 26.317h824.32c24.678 0 45.773-8.806 63.283-26.317s26.317-38.605 26.317-63.283z"/>
<glyph unicode="" glyph-name="phone" d="M54.087 863.1c-79.297-118.999-74.524-348.154 71.464-510.813 135.474-150.939 337.571-318.447 339.263-319.816 4.333-3.931 107.798-96.472 260.57-96.472 14.783 0 29.786 0.909 44.598 2.694 165.719 20.021 226.466 126.257 247.933 187.781 11.086 31.662-7.578 70.928-40.787 85.754l-194.494 86.452c-9.334 4.136-20.496 6.326-32.289 6.326-24.037 0-48.168-8.917-62.937-23.266l-61.298-59.396c-9.108-8.826-25.289-14.751-40.295-14.751-6.414 0-12.071 1.132-16.328 3.289-41.379 20.751-106.409 62.177-181.326 141.606-66.487 70.558-98.072 118.92-112.876 147.076-8.269 15.75 0.372 43.027 13.344 55.978l54.532 54.512c22.671 22.671 32.881 64.379 23.228 94.947l-61.321 194.74c-9.331 29.616-40.808 60.257-77.509 60.257-50.833-1.712-122.2-19.919-173.473-96.9zM229.503 925.287c17.527-0.073 37.193-19.388 42.423-35.994l61.327-194.731c5.792-18.318-1.073-46.316-14.66-59.929l-54.541-54.494c-22.276-22.278-35.449-66.463-19.523-96.703 15.8-30.041 49.145-81.284 118.34-154.727 78.394-83.107 147.143-126.808 191.003-148.826 8.991-4.526 20.068-6.906 31.961-6.906 24.128 0 48.822 9.377 64.426 24.5l61.295 59.378c12.206 11.834 41.221 17.075 56.924 10.122l194.509-86.452c14.827-6.596 27.702-26.602 22.135-42.528-18.799-53.917-72.297-147.009-219.279-164.784-13.426-1.621-27.030-2.424-40.459-2.424-137.763 0-233.642 84.251-237.831 87.974-1.964 1.624-203.121 168.548-336.158 316.765-130.637 145.54-140.847 359.68-68.43 468.337 43.091 64.657 103.445 79.965 146.539 81.425z"/>
<glyph unicode="" glyph-name="woman" d="M896-64h-768c-7.526 0-14.694 3.328-19.558 9.062s-6.963 13.312-5.734 20.736c13.926 83.558 28.16 136.653 63.386 177.818 35.174 41.114 89.139 67.43 186.266 90.778 18.688 4.506 47.002 37.171 55.501 72.55 6.144 25.6 1.126 45.619-14.95 59.443-53.094 45.517-72.397 113.869-79.258 163.174-8.294 59.802-1.741 114.432 8.499 142.029 9.882 26.778 25.19 32.41 36.25 32.41 22.733 0 91.904 0 135.629 43.725 4.813 4.813 11.315 7.475 18.125 7.475s13.312-2.714 18.125-7.475c43.725-43.725 112.691-43.725 135.373-43.725 11.059 0 26.368-5.632 36.25-32.41 10.189-27.597 16.794-82.227 8.499-142.029-6.861-49.306-26.163-117.658-79.258-163.174-17.050-14.643-22.682-34.765-16.64-59.802 8.397-34.918 37.632-67.482 57.19-72.192 97.126-23.347 151.091-49.664 186.266-90.778 35.226-41.165 49.459-94.259 63.386-177.818 1.229-7.424-0.87-15.002-5.734-20.736s-12.032-9.062-19.558-9.062zM158.515-12.8h707.021c-23.45 124.621-53.555 160.768-205.875 197.427-40.755 9.83-82.483 58.112-94.976 109.978-10.598 43.981 1.178 83.302 33.075 110.643 46.694 40.038 59.802 107.776 63.437 144.589 4.915 49.357-1.741 87.91-6.963 103.014-31.283 0.563-92.314 5.222-142.131 42.854-49.869-37.632-111.002-42.291-142.336-42.854-5.222-15.155-11.827-53.658-6.963-103.014 3.635-36.813 16.742-104.55 63.437-144.589 30.976-26.573 42.138-65.741 31.437-110.285-12.595-52.326-53.555-100.813-93.286-110.336-152.32-36.659-182.477-72.806-205.875-197.427zM691.2 294.4c-9.37 0-18.432 5.171-22.938 14.182-6.298 12.646-1.178 28.006 11.469 34.355 47.053 23.552 128.512 39.885 175.872 47.923-46.080 87.654-70.4 179.405-90.368 254.72-7.834 29.542-14.592 55.040-21.555 75.93-22.477 67.482-71.526 116.275-131.174 130.56-34.406 8.243-67.072 3.277-83.2-12.698-4.813-4.71-11.264-7.373-17.971-7.373-0.051 0-0.102 0-0.154 0-6.81 0.051-13.261 2.765-18.074 7.629-15.104 15.309-47.565 20.429-80.742 12.698-60.058-13.978-109.414-62.874-132.045-130.816-7.014-20.992-13.773-46.592-21.658-76.186-20.019-75.571-44.442-167.578-90.829-255.488 50.893-9.882 140.39-28.928 176.384-46.95 12.646-6.298 17.766-21.709 11.469-34.355s-21.709-17.766-34.355-11.469c-35.635 17.818-154.88 41.318-197.786 48.896-8.294 1.485-15.36 6.912-18.842 14.592s-3.021 16.589 1.331 23.808c54.528 90.931 81.459 192.461 103.117 274.074 8.090 30.413 15.053 56.73 22.528 79.258 28.314 84.992 91.546 146.483 169.062 164.506 41.677 9.677 82.022 4.813 110.694-12.493 29.44 17.51 70.605 22.272 112.998 12.134 35.277-8.448 68.762-26.47 96.819-52.019 32.102-29.286 55.962-66.97 71.014-112.128 7.475-22.426 14.438-48.64 22.477-79.002 21.658-81.664 48.589-183.347 103.168-274.33 4.454-7.373 4.864-16.486 1.126-24.269s-11.11-13.107-19.661-14.285c-1.382-0.205-136.602-18.637-196.762-48.742-3.686-1.843-7.578-2.714-11.418-2.714z"/>
<glyph unicode="" glyph-name="laptop-phone" d="M588.8 243.2h-409.6c-42.342 0-76.8 34.458-76.8 76.8v409.6c0 42.342 34.458 76.8 76.8 76.8h665.6c42.342 0 76.8-34.458 76.8-76.8v-51.2c0-14.131-11.469-25.6-25.6-25.6s-25.6 11.469-25.6 25.6v51.2c0 14.131-11.469 25.6-25.6 25.6h-665.6c-14.131 0-25.6-11.469-25.6-25.6v-409.6c0-14.131 11.469-25.6 25.6-25.6h409.6c14.131 0 25.6-11.469 25.6-25.6s-11.469-25.6-25.6-25.6zM588.8 38.4h-512c-42.342 0-76.8 34.458-76.8 76.8v51.2c0 14.131 11.469 25.6 25.6 25.6h563.2c14.131 0 25.6-11.469 25.6-25.6s-11.469-25.6-25.6-25.6h-537.6v-25.6c0-14.131 11.469-25.6 25.6-25.6h512c14.131 0 25.6-11.469 25.6-25.6s-11.469-25.6-25.6-25.6zM947.2 38.4h-204.8c-42.342 0-76.8 34.458-76.8 76.8v409.6c0 42.342 34.458 76.8 76.8 76.8h204.8c42.342 0 76.8-34.458 76.8-76.8v-409.6c0-42.342-34.458-76.8-76.8-76.8zM742.4 550.4c-14.131 0-25.6-11.469-25.6-25.6v-409.6c0-14.131 11.469-25.6 25.6-25.6h204.8c14.131 0 25.6 11.469 25.6 25.6v409.6c0 14.131-11.469 25.6-25.6 25.6h-204.8zM844.8 140.8c-6.758 0-13.312 2.714-18.074 7.526s-7.526 11.366-7.526 18.074 2.714 13.363 7.526 18.074c4.762 4.762 11.366 7.526 18.074 7.526s13.363-2.714 18.074-7.526c4.762-4.762 7.526-11.366 7.526-18.074s-2.714-13.363-7.526-18.074c-4.762-4.762-11.366-7.526-18.074-7.526z"/>
<glyph unicode="" glyph-name="range" horiz-adv-x="926" d="M546.517 574.562c-57.528 51.775-132.315 69.034-201.348 40.27-28.764 23.011-74.787 17.258-97.798-11.506s-17.258-69.034 11.506-92.045c28.764-28.764 69.034-23.011 92.045 5.753 17.258 17.258 23.011 40.27 17.258 63.281 74.787 28.764 155.326-11.506 184.090-86.292s-11.506-155.326-86.292-184.090c-17.258-5.753-34.517-11.506-51.775-11.506-11.506 0-23.011-11.506-23.011-23.011s11.506-17.258 23.011-17.258c103.551 0 184.090 80.539 184.090 184.090 0 51.775-23.011 97.798-51.775 132.315v0zM299.146 534.292c-17.258 0-28.764 11.506-28.764 28.764s11.506 28.764 28.764 28.764c17.258 0 28.764-11.506 28.764-28.764s-11.506-28.764-28.764-28.764c0 0 0 0 0 0v0zM673.079 706.876c-126.562 120.809-316.404 138.067-465.978 40.27-28.764 23.011-69.034 17.258-92.045-17.258-23.011-28.764-11.506-74.787 17.258-92.045 28.764-23.011 74.787-17.258 97.798 17.258 11.506 17.258 11.506 40.27 5.753 63.281 149.573 97.798 350.921 57.528 448.719-92.045s57.528-350.921-92.045-448.719c-51.775-34.517-115.056-57.528-178.337-57.528v0c-11.506 0-17.258-11.506-17.258-17.258s11.506-17.258 17.258-17.258v0c201.348 0 362.427 161.079 362.427 362.427 5.753 97.798-34.517 189.843-103.551 258.876v0zM172.584 666.607c-17.258 0-28.764 11.506-28.764 28.764s11.506 23.011 28.764 23.011 28.764-11.506 28.764-28.764v0c0-11.506-17.258-23.011-28.764-23.011v0zM776.629 810.427c-178.337 178.337-465.978 201.348-673.079 46.022-28.764 17.258-74.787 11.506-92.045-23.011-23.011-34.517-11.506-74.787 23.011-92.045s74.787-11.506 92.045 17.258c11.506 17.258 11.506 40.27 5.753 63.281 207.101 155.326 506.247 115.056 661.573-92.045s115.056-506.247-92.045-661.573c-80.539-63.281-184.090-92.045-281.888-97.798-11.506 0-23.011-11.506-23.011-23.011s11.506-23.011 23.011-23.011v0c281.888 0 512 230.112 512 512-5.753 143.82-57.528 276.135-155.326 373.933zM69.034 770.157c-17.258 0-28.764 11.506-28.764 28.764s11.506 28.764 28.764 28.764c17.258 0 28.764-11.506 28.764-28.764s-11.506-28.764-28.764-28.764c0 0 0 0 0 0v0zM327.91 298.427c-5.753 5.753-23.011 5.753-28.764 0s-11.506-17.258 0-28.764c5.753-5.753 23.011-5.753 28.764 0s5.753 11.506 5.753 11.506c0 11.506-5.753 11.506-5.753 17.258zM327.91 114.337c-5.753 5.753-23.011 5.753-28.764 0s-11.506-17.258 0-28.764c5.753-5.753 23.011-5.753 28.764 0s5.753 11.506 5.753 11.506c0 11.506-5.753 17.258-5.753 17.258zM327.91-29.483c-5.753 5.753-23.011 5.753-28.764 0s-5.753-23.011 0-28.764c5.753-5.753 23.011-5.753 28.764 0s5.753 11.506 5.753 11.506-5.753 11.506-5.753 17.258z"/>
<glyph unicode="" glyph-name="services" d="M415.726 960h-354.462c-35.009 0-61.265-26.256-61.265-61.265v-354.462c0-35.009 26.256-61.265 61.265-61.265h354.462c35.009 0 61.265 26.256 61.265 61.265v354.462c0 35.009-30.632 61.265-61.265 61.265zM437.607 544.274c0-13.128-8.752-21.88-21.88-21.88v0h-354.462c-13.128 0-26.256 13.128-26.256 26.256v0 350.085c0 13.128 13.128 26.256 26.256 26.256h354.462c13.128 0 26.256-13.128 26.256-26.256 0 0 0 0 0 0v-354.462zM962.735 960h-354.462c-35.009 0-61.265-26.256-61.265-61.265v-354.462c0-35.009 26.256-61.265 61.265-61.265h354.462c35.009 0 61.265 26.256 61.265 61.265v354.462c0 35.009-26.256 61.265-61.265 61.265zM984.615 544.274c0-13.128-13.128-26.256-26.256-26.256v0h-354.462c-13.128 0-26.256 13.128-26.256 26.256v354.462c0 13.128 13.128 26.256 26.256 26.256h358.838c13.128 0 26.256-13.128 26.256-26.256 0 0 0 0 0 0v-354.462zM415.726 412.991h-354.462c-35.009 0-61.265-26.256-61.265-61.265v-354.462c0-35.009 26.256-61.265 61.265-61.265h354.462c35.009 0 61.265 26.256 61.265 61.265v354.462c0 30.632-30.632 61.265-61.265 61.265zM437.607-2.735c0-13.128-13.128-26.256-26.256-26.256 0 0 0 0 0 0h-350.085c-13.128 0-26.256 13.128-26.256 26.256v0 354.462c0 13.128 13.128 26.256 26.256 26.256h354.462c13.128 0 26.256-13.128 26.256-26.256v-354.462zM1006.496 194.188h-201.299v201.299c0 8.752-8.752 17.504-17.504 17.504s-17.504-8.752-17.504-17.504v-201.299h-201.299c-8.752 0-17.504-8.752-17.504-17.504s8.752-17.504 17.504-17.504c0 0 0 0 0 0h201.299v-205.675c0-8.752 8.752-17.504 17.504-17.504s17.504 8.752 17.504 17.504v201.299h201.299c8.752 0 17.504 8.752 17.504 17.504 0 13.128-8.752 21.88-17.504 21.88 0 0 0 0 0 0z"/>
<glyph unicode="" glyph-name="saudization" horiz-adv-x="848" d="M845.395 69.358l-107.163 138.121c35.721 9.526 64.298 33.34 85.73 61.916 26.195 42.865 14.288 97.637 2.381 147.647-7.144 26.195-9.526 54.772-11.907 80.967 2.381 26.195 4.763 54.772 11.907 80.967 11.907 52.391 21.433 104.781-2.381 147.647-26.195 45.247-78.586 61.916-130.977 78.586-26.195 9.526-50.009 19.051-73.823 30.958-21.433 14.288-40.484 28.577-59.535 47.628-38.102 35.721-80.967 76.205-135.74 76.205s-97.637-40.484-135.74-73.823c-19.051-19.051-38.102-33.34-59.535-47.628-23.814-11.907-47.628-21.433-73.823-28.577-50.009-16.67-102.4-33.34-128.595-78.586s-14.288-97.637-2.381-150.028c7.144-26.195 9.526-54.772 11.907-80.967-2.381-26.195-4.763-54.772-11.907-80.967-11.907-52.391-21.433-104.781 2.381-147.647 19.051-30.958 50.009-52.391 85.73-61.916l-107.163-138.121c-7.144-7.144-4.763-19.051 2.381-23.814 4.763-2.381 9.526-4.763 11.907-4.763l126.214 16.67 30.958-109.544c2.381-9.526 9.526-14.288 14.288-14.288 0 0 2.381 0 2.381 0 4.763 0 9.526 2.381 14.288 7.144l111.926 145.265c28.577-26.195 64.298-42.865 102.4-45.247 38.102 2.381 76.205 19.051 102.4 45.247l111.926-145.265c2.381-4.763 9.526-7.144 14.288-7.144 0 0 2.381 0 2.381 0 7.144 2.381 11.907 7.144 14.288 11.907l30.958 109.544 126.214-16.67c9.526-2.381 19.051 4.763 19.051 14.288 4.763 7.144 4.763 11.907 2.381 14.288v0zM202.419-9.228l-26.195 90.493c-2.381 9.526-9.526 14.288-19.051 11.907l-100.019-11.907 88.112 114.307 9.526-2.381c26.195-7.144 50.009-16.67 73.823-28.577 21.433-14.288 40.484-28.577 59.535-47.628l7.144-4.763-92.874-121.451zM423.888 76.502c-40.484 0-76.205 30.958-111.926 66.679-19.051 19.051-40.484 38.102-64.298 52.391-26.195 14.288-52.391 23.814-80.967 30.958-47.628 14.288-90.493 28.577-109.544 61.916-19.051 30.958-9.526 76.205 0 123.833 7.144 28.577 11.907 59.535 11.907 88.112 0 30.958-4.763 59.535-11.907 88.112-9.526 47.628-19.051 92.874 0 123.833 19.051 33.34 64.298 47.628 109.544 61.916 28.577 9.526 54.772 19.051 80.967 33.34 23.814 14.288 45.247 33.34 64.298 52.391 35.721 33.34 71.442 66.679 111.926 66.679s76.205-30.958 111.926-66.679c19.051-19.051 40.484-38.102 64.298-52.391 26.195-14.288 52.391-23.814 80.967-30.958 47.628-14.288 90.493-28.577 109.544-61.916 19.051-30.958 9.526-76.205-2.381-123.833-7.144-28.577-11.907-59.535-11.907-88.112 0-30.958 4.763-59.535 11.907-88.112 9.526-47.628 19.051-92.874 2.381-123.833-19.051-33.34-64.298-47.628-109.544-61.916-28.577-7.144-54.772-19.051-80.967-30.958-23.814-14.288-45.247-33.34-64.298-52.391-35.721-38.102-71.442-69.060-111.926-69.060v0zM690.605 93.172c-9.526 0-16.67-4.763-19.051-11.907l-26.195-90.493-92.874 119.070 7.144 4.763c19.051 19.051 38.102 33.34 59.535 47.628 23.814 11.907 47.628 21.433 73.823 28.577l9.526 2.381 88.112-114.307-100.019 14.288zM423.888 819.498c-176.223 0-319.107-142.884-319.107-319.107s142.884-319.107 319.107-319.107 319.107 142.884 319.107 319.107-142.884 319.107-319.107 319.107c0 0 0 0 0 0zM423.888 217.005c-157.172 0-283.386 126.214-283.386 283.386s128.595 283.386 283.386 283.386 283.386-126.214 283.386-283.386-126.214-283.386-283.386-283.386v0zM628.688 574.214c-7.144 9.526-16.67 14.288-28.577 14.288h-107.163l-33.34 102.4c-7.144 19.051-26.195 28.577-45.247 21.433-9.526-2.381-19.051-11.907-21.433-21.433l-35.721-102.4h-107.163c-19.051 0-35.721-16.67-35.721-35.721 0-11.907 4.763-21.433 14.288-28.577l88.112-64.298-33.34-102.4c-7.144-19.051 4.763-38.102 23.814-45.247 11.907-2.381 21.433-2.381 30.958 4.763l88.112 64.298 88.112-64.298c16.67-11.907 38.102-7.144 50.009 7.144 7.144 9.526 9.526 21.433 4.763 30.958l-33.34 102.4 88.112 64.298c11.907 14.288 16.67 35.721 4.763 52.391zM502.474 481.34c-7.144-4.763-9.526-11.907-7.144-19.051l38.102-114.307-97.637 71.442c-7.144 4.763-14.288 4.763-21.433 0l-97.637-71.442 38.102 114.307c2.381 7.144 0 14.288-7.144 19.051l-97.637 71.442h121.451c7.144 0 14.288 4.763 16.67 11.907l38.102 114.307 38.102-114.307c2.381-7.144 9.526-11.907 16.67-11.907h121.451l-100.019-71.442z"/>
<glyph unicode="" glyph-name="work_permit" horiz-adv-x="924" d="M33.211 860.368h495.395v-116.238c0-8.303 8.303-16.605 16.605-16.605v0h116.238v-132.843h33.211v149.449c0 5.535-2.768 8.303-5.535 11.070l-132.843 132.843c-2.768 2.768-8.303 5.535-11.070 5.535h-445.578v33.211h628.238v-362.551h33.211v379.157c0 8.303-8.303 16.605-16.605 16.605 0 0 0 0 0 0h-661.449c-8.303 0-16.605-8.303-16.605-16.605 0 0 0 0 0 0v-49.816h-49.816c-8.303 0-16.605-8.303-16.605-16.605v-924.368c0-8.303 8.303-16.605 16.605-16.605h561.816v33.211h-545.211v891.157zM561.816 838.227l74.724-77.492h-74.724v77.492zM907.762 464.605h-24.908c-74.724 0-143.914 33.211-190.962 88.562l-2.768 2.768c-5.535 8.303-16.605 8.303-24.908 0 0 0 0 0 0 0l-2.768-2.768c-47.049-55.351-116.238-88.562-190.962-88.562h-24.908c-8.303 0-16.605-8.303-16.605-16.605v0-268.454c0-66.422 35.978-124.541 91.33-157.751l146.681-85.795c5.535-2.768 11.070-2.768 16.605 0l146.681 85.795c55.351 33.211 91.33 91.33 91.33 157.751v268.454c2.768 8.303-2.768 16.605-13.838 16.605zM891.157 179.546c0-52.584-27.676-102.4-74.724-130.076l-141.146-80.259-138.378 80.259c-47.049 27.676-74.724 74.724-74.724 130.076v251.849h8.303c77.492 0 152.216 33.211 207.568 91.33 52.584-58.119 127.308-91.33 207.568-91.33h8.303v-251.849zM678.054 414.789c-99.632 0-182.659-80.259-182.659-182.659s80.259-182.659 182.659-182.659 182.659 80.259 182.659 182.659c-2.768 102.4-83.027 182.659-182.659 182.659zM678.054 85.449c-83.027 0-149.449 66.422-149.449 149.449s66.422 149.449 149.449 149.449 149.449-66.422 149.449-149.449c-2.768-83.027-69.189-149.449-149.449-149.449zM669.751 182.314l-30.443 30.443-22.141-22.141 49.816-49.816c2.768-2.768 8.303-5.535 11.070-5.535 0 0 2.768 0 2.768 0 5.535 2.768 11.070 5.535 11.070 11.070l49.816 166.054-30.443 8.303-41.514-138.378zM66.422 697.081h428.973v-33.211h-428.973v33.211zM66.422 630.659h428.973v-33.211h-428.973v33.211zM66.422 564.238h428.973v-33.211h-428.973v33.211zM66.422 497.816h329.341v-33.211h-329.341v33.211zM66.422 431.395h329.341v-33.211h-329.341v33.211zM66.422 364.973h329.341v-33.211h-329.341v33.211zM66.422 168.476h329.341v-33.211h-329.341v33.211zM66.422 102.054h329.341v-33.211h-329.341v33.211zM66.422 35.632h329.341v-33.211h-329.341v33.211zM83.027 827.157h33.211v-33.211h-33.211v33.211zM149.449 827.157h33.211v-33.211h-33.211v33.211zM215.87 827.157h33.211v-33.211h-33.211v33.211zM279.524 827.157h215.87v-33.211h-215.87v33.211z"/>
<glyph unicode="" glyph-name="transfering" horiz-adv-x="1314" d="M968.082 233.065l335.509 335.509c10.485 10.485 10.485 31.454 0 41.939l-335.509 335.509c-6.99 10.485-13.98 13.98-24.464 13.98s-17.474-3.495-20.969-10.485c-6.99-6.99-10.485-13.98-10.485-20.969v-160.765h-352.983c-17.474 0-31.454-13.98-31.454-31.454s13.98-31.454 31.454-31.454h384.437c17.474 0 31.454 13.98 31.454 31.454v118.826l262.116-262.116-262.116-262.116v118.826c0 17.474-13.98 31.454-31.454 31.454h-545.201v160.765c0 17.474-13.98 31.454-31.454 31.454-6.99 0-17.474-3.495-20.969-10.485l-335.509-335.509c-10.485-10.485-10.485-31.454 0-41.939l335.509-339.003c6.99-6.99 13.98-10.485 20.969-10.485 0 0 0 0 0 0 3.495 0 6.99 0 10.485 3.495 10.485 3.495 17.474 17.474 17.474 27.959v160.765h352.983c17.474 0 31.454 13.98 31.454 31.454s-13.98 31.454-31.454 31.454h-384.437c-17.474 0-31.454-13.98-31.454-31.454v-118.826l-262.116 262.116 262.116 262.116v-118.826c0-17.474 13.98-31.454 31.454-31.454h548.696v-160.765c0-17.474 13.98-31.454 31.454-31.454 10.485 3.495 17.474 6.99 24.464 10.485z"/>
<glyph unicode="" glyph-name="stamp" d="M1020.249 87.985l-90.766 273.484c-9.539 28.734-36.289 48.039-66.57 48.039h-48.828c-0.211 2.305-0.562 4.617-1.148 6.898-2.875 11.18-9.93 20.57-19.867 26.437l-9.406 5.562 46.859 74.148c20.391 32.258 51.078 56.859 88.758 71.141 33.867 12.844 62.68 37.117 81.141 68.352 22.508 38.102 28.297 82.539 16.289 125.148-12 42.586-40.195 77.484-79.391 98.273-35.195 18.664-76.023 23.422-114.953 13.398-38.945-10.023-72.398-33.898-94.211-67.234-21.516-32.891-30.25-72.336-24.594-111.062 5.734-39.234-0.781-77.289-18.836-110.047l-43.094-78.195-9.414 5.562c-20.508 12.117-47.055 5.297-59.172-15.219l-16.773-28.375-42.391 25.055c-26.711 15.781-61.289 6.891-77.078-19.828l-25.531-43.219c-5.625-9.508-2.469-21.773 7.039-27.391l32.844-19.398h-290.070c-30.273 0-57.023-19.312-66.562-48.047l-90.766-273.484c-7.398-22.289-3.758-45.992 9.984-65.039 13.742-19.039 35.102-29.969 58.586-29.969h879.343c23.484 0 44.844 10.93 58.586 29.969 13.742 19.047 17.383 42.75 9.992 65.039zM719.757 591.219c22.297 40.461 30.383 87.195 23.375 135.141-4.242 29.055 2.328 58.664 18.492 83.383 33.68 51.461 102.617 69.203 156.953 40.391 29.445-15.625 50.625-41.82 59.633-73.789 9.016-31.984 4.672-65.352-12.227-93.953-14.055-23.781-35.109-41.523-60.883-51.297-45.852-17.375-83.328-47.523-108.383-87.164l-47.508-75.172-3.664 2.172-69.469 41.039zM590.711 473.953l16.766 28.367c0.562 0.953 1.375 1.328 1.961 1.477 0.594 0.156 1.484 0.219 2.437-0.344l133.695-79c0.008 0 0.008 0 0.008-0.008l27.148-16.039c0.945-0.555 1.32-1.375 1.469-1.961 0.156-0.586 0.219-1.484-0.344-2.43l-2.539-4.305c-0.008-0.008-0.016-0.016-0.023-0.031l-14.203-24.039zM471.242 479.18c4.562 7.727 14.562 10.297 22.289 5.734l59.609-35.219s0.008-0.008 0.008-0.008l260.43-153.875c3.742-2.211 6.398-5.75 7.477-9.961 1.086-4.211 0.461-8.586-1.75-12.328l-15.367-26.008-269.453 159.211c0 0.008 0 0.008-0.008 0.008l-78.602 46.445zM977.827 46.352c-6.133-8.5-15.672-13.375-26.156-13.375h-879.343c-10.484 0-20.016 4.875-26.156 13.375-6.133 8.5-7.758 19.086-4.453 29.039l90.766 273.476c4.094 12.352 15.586 20.648 28.602 20.648h357.758l281.969-166.609c0.695-0.414 1.422-0.766 2.156-1.086 0.211-0.094 0.43-0.18 0.648-0.266 0.555-0.219 1.125-0.414 1.695-0.586 0.219-0.062 0.43-0.133 0.641-0.187 0.758-0.195 1.531-0.359 2.305-0.469 0.141-0.016 0.281-0.016 0.422-0.039 0.648-0.070 1.297-0.117 1.953-0.125 0.117-0.008 0.234-0.023 0.352-0.023 0.148 0 0.297 0.023 0.445 0.023 0.516 0.016 1.031 0.047 1.547 0.102 0.25 0.023 0.5 0.039 0.75 0.078 0.75 0.102 1.5 0.234 2.242 0.43 5.133 1.312 9.539 4.625 12.234 9.195l25.539 43.219c6.789 11.492 9.234 24.727 7.078 37.742-0.273 1.641-0.609 3.273-1.023 4.898-3.742 14.555-12.937 26.789-25.875 34.43l-42.398 25.055 8.406 14.211h62.984c13.016 0 24.508-8.289 28.609-20.641l90.766-273.484c3.297-9.945 1.672-20.531-4.461-29.031zM895.156 785.953c11.937-5.961 19.148-14.141 22.047-24.992 3.953-14.797-0.93-31.617-7.133-40.992-6.102-9.203-3.578-21.617 5.625-27.711 3.398-2.25 7.234-3.328 11.031-3.328 6.477 0 12.844 3.148 16.687 8.953 10.531 15.906 20.109 44.664 12.43 73.406-5.859 21.93-20.656 39.375-42.797 50.445-9.883 4.937-21.891 0.937-26.836-8.945-4.937-9.883-0.937-21.891 8.945-26.836zM825.476 818c0.5-1.203 1.117-2.367 1.844-3.445 0.734-1.102 1.578-2.117 2.5-3.039 0.914-0.922 1.937-1.758 3.039-2.5 1.078-0.719 2.234-1.344 3.437-1.844 1.219-0.5 2.477-0.875 3.742-1.133 1.297-0.266 2.617-0.383 3.922-0.383 1.297 0 2.617 0.117 3.898 0.383 1.281 0.258 2.539 0.633 3.734 1.133 1.219 0.5 2.383 1.125 3.461 1.844 1.102 0.742 2.117 1.578 3.039 2.5s1.758 1.937 2.484 3.039c0.719 1.078 1.336 2.242 1.836 3.445 0.5 1.211 0.883 2.477 1.141 3.734 0.258 1.297 0.398 2.625 0.398 3.922s-0.141 2.617-0.398 3.898-0.641 2.539-1.141 3.742c-0.5 1.219-1.117 2.375-1.836 3.453-0.727 1.102-1.562 2.125-2.484 3.039-0.922 0.922-1.937 1.766-3.039 2.484-1.078 0.719-2.242 1.336-3.461 1.836-1.195 0.5-2.453 0.883-3.734 1.141-2.586 0.523-5.242 0.523-7.82 0-1.266-0.258-2.523-0.641-3.742-1.141-1.203-0.5-2.359-1.117-3.437-1.836-1.102-0.719-2.125-1.562-3.039-2.484-0.922-0.914-1.766-1.937-2.5-3.039-0.727-1.078-1.344-2.234-1.844-3.453-0.5-1.203-0.883-2.461-1.141-3.742s-0.375-2.602-0.375-3.898 0.117-2.625 0.375-3.922c0.258-1.258 0.641-2.516 1.141-3.734zM219.883 278.274h257.055c11.047 0 20 8.953 20 19.992 0 11.047-8.953 20-20 20h-257.055c-11.039 0-19.992-8.953-19.992-20 0-11.039 8.953-19.992 19.992-19.992zM190.578 181.242h403.843c11.047 0 20 8.953 20 20s-8.953 20-20 20h-403.843c-11.047 0-20-8.953-20-20s8.953-20 20-20zM778.343 124.219h-629.148c-11.047 0-20-8.961-20-20 0-11.047 8.953-20 20-20h629.148c11.039 0 20 8.953 20 20 0 11.039-8.961 20-20 20z"/>
<glyph unicode="" glyph-name="home" d="M1024 369.556l-512 397.426-512-397.428v162.038l512 397.426 512-397.428zM896 384v-384h-256v256h-256v-256h-256v384l384 288z"/>
<glyph unicode="" glyph-name="cart" d="M384 32c0-53.019-42.981-96-96-96s-96 42.981-96 96c0 53.019 42.981 96 96 96s96-42.981 96-96zM1024 32c0-53.019-42.981-96-96-96s-96 42.981-96 96c0 53.019 42.981 96 96 96s96-42.981 96-96zM1024 448v384h-768c0 35.346-28.654 64-64 64h-192v-64h128l48.074-412.054c-29.294-23.458-48.074-59.5-48.074-99.946 0-70.696 57.308-128 128-128h768v64h-768c-35.346 0-64 28.654-64 64 0 0.218 0.014 0.436 0.016 0.656l831.984 127.344z"/>
<glyph unicode="" glyph-name="coin-dollar" d="M480 896c-265.096 0-480-214.904-480-480 0-265.098 214.904-480 480-480 265.098 0 480 214.902 480 480 0 265.096-214.902 480-480 480zM480 32c-212.078 0-384 171.922-384 384s171.922 384 384 384c212.078 0 384-171.922 384-384s-171.922-384-384-384zM512 448v128h128v64h-128v64h-64v-64h-128v-256h128v-128h-128v-64h128v-64h64v64h128.002l-0.002 256h-128zM448 448h-64v128h64v-128zM576.002 256h-64.002v128h64.002v-128z"/>
<glyph unicode="" glyph-name="calculator" d="M384 896h-320c-35.2 0-64-28.8-64-64v-320c0-35.2 28.796-64 64-64h320c35.2 0 64 28.8 64 64v320c0 35.2-28.8 64-64 64zM384 640h-320v64h320v-64zM896 896h-320c-35.204 0-64-28.8-64-64v-832c0-35.2 28.796-64 64-64h320c35.2 0 64 28.8 64 64v832c0 35.2-28.8 64-64 64zM896 320h-320v64h320v-64zM896 512h-320v64h320v-64zM384 384h-320c-35.2 0-64-28.8-64-64v-320c0-35.2 28.796-64 64-64h320c35.2 0 64 28.8 64 64v320c0 35.2-28.8 64-64 64zM384 128h-128v-128h-64v128h-128v64h128v128h64v-128h128v-64z"/>
<glyph unicode="" glyph-name="printer" d="M256 896h512v-128h-512v128zM960 704h-896c-35.2 0-64-28.8-64-64v-320c0-35.2 28.794-64 64-64h192v-256h512v256h192c35.2 0 64 28.8 64 64v320c0 35.2-28.8 64-64 64zM128 512c-35.346 0-64 28.654-64 64s28.654 64 64 64 64-28.654 64-64-28.652-64-64-64zM704 64h-384v320h384v-320z"/>
<glyph unicode="" glyph-name="download2" d="M512 384l256 256h-192v256h-128v-256h-192zM744.726 488.728l-71.74-71.742 260.080-96.986-421.066-157.018-421.066 157.018 260.080 96.986-71.742 71.742-279.272-104.728v-256l512-192 512 192v256z"/>
<glyph unicode="" glyph-name="user-tie" d="M320 768c0 106.039 85.961 192 192 192s192-85.961 192-192c0-106.039-85.961-192-192-192s-192 85.961-192 192zM768.078 512h-35.424l-199.104-404.244 74.45 372.244-96 96-96-96 74.45-372.244-199.102 404.244h-35.424c-127.924 0-127.924-85.986-127.924-192v-320h768v320c0 106.014 0 192-127.922 192z"/>
<glyph unicode="" glyph-name="spinner11" d="M1024 576h-384l143.53 143.53c-72.53 72.526-168.96 112.47-271.53 112.47s-199-39.944-271.53-112.47c-72.526-72.53-112.47-168.96-112.47-271.53s39.944-199 112.47-271.53c72.53-72.526 168.96-112.47 271.53-112.47s199 39.944 271.528 112.472c6.056 6.054 11.86 12.292 17.456 18.668l96.32-84.282c-93.846-107.166-231.664-174.858-385.304-174.858-282.77 0-512 229.23-512 512s229.23 512 512 512c141.386 0 269.368-57.326 362.016-149.984l149.984 149.984v-384z"/>
<glyph unicode="" glyph-name="key" d="M704 960c-176.73 0-320-143.268-320-320 0-20.026 1.858-39.616 5.376-58.624l-389.376-389.376v-192c0-35.346 28.654-64 64-64h64v64h128v128h128v128h128l83.042 83.042c34.010-12.316 70.696-19.042 108.958-19.042 176.73 0 320 143.268 320 320s-143.27 320-320 320zM799.874 639.874c-53.020 0-96 42.98-96 96s42.98 96 96 96 96-42.98 96-96-42.98-96-96-96z"/>
<glyph unicode="" glyph-name="control" d="M363.722 237.948l41.298 57.816-45.254 45.256-57.818-41.296c-10.722 5.994-22.204 10.774-34.266 14.192l-11.682 70.084h-64l-11.68-70.086c-12.062-3.418-23.544-8.198-34.266-14.192l-57.818 41.298-45.256-45.256 41.298-57.816c-5.994-10.72-10.774-22.206-14.192-34.266l-70.086-11.682v-64l70.086-11.682c3.418-12.060 8.198-23.544 14.192-34.266l-41.298-57.816 45.254-45.256 57.818 41.296c10.722-5.994 22.204-10.774 34.266-14.192l11.682-70.084h64l11.68 70.086c12.062 3.418 23.544 8.198 34.266 14.192l57.818-41.296 45.254 45.256-41.298 57.816c5.994 10.72 10.774 22.206 14.192 34.266l70.088 11.68v64l-70.086 11.682c-3.418 12.060-8.198 23.544-14.192 34.266zM224 96c-35.348 0-64 28.654-64 64s28.652 64 64 64 64-28.654 64-64-28.652-64-64-64zM1024 576v64l-67.382 12.25c-1.242 8.046-2.832 15.978-4.724 23.79l57.558 37.1-24.492 59.128-66.944-14.468c-4.214 6.91-8.726 13.62-13.492 20.13l39.006 56.342-45.256 45.254-56.342-39.006c-6.512 4.766-13.22 9.276-20.13 13.494l14.468 66.944-59.128 24.494-37.1-57.558c-7.812 1.892-15.744 3.482-23.79 4.724l-12.252 67.382h-64l-12.252-67.382c-8.046-1.242-15.976-2.832-23.79-4.724l-37.098 57.558-59.128-24.492 14.468-66.944c-6.91-4.216-13.62-8.728-20.13-13.494l-56.342 39.006-45.254-45.254 39.006-56.342c-4.766-6.51-9.278-13.22-13.494-20.13l-66.944 14.468-24.492-59.128 57.558-37.1c-1.892-7.812-3.482-15.742-4.724-23.79l-67.384-12.252v-64l67.382-12.25c1.242-8.046 2.832-15.978 4.724-23.79l-57.558-37.1 24.492-59.128 66.944 14.468c4.216-6.91 8.728-13.618 13.494-20.13l-39.006-56.342 45.254-45.256 56.342 39.006c6.51-4.766 13.22-9.276 20.13-13.492l-14.468-66.944 59.128-24.492 37.102 57.558c7.81-1.892 15.742-3.482 23.788-4.724l12.252-67.384h64l12.252 67.382c8.044 1.242 15.976 2.832 23.79 4.724l37.1-57.558 59.128 24.492-14.468 66.944c6.91 4.216 13.62 8.726 20.13 13.492l56.342-39.006 45.256 45.256-39.006 56.342c4.766 6.512 9.276 13.22 13.492 20.13l66.944-14.468 24.492 59.13-57.558 37.1c1.892 7.812 3.482 15.742 4.724 23.79l67.382 12.25zM672 468.8c-76.878 0-139.2 62.322-139.2 139.2s62.32 139.2 139.2 139.2 139.2-62.322 139.2-139.2c0-76.878-62.32-139.2-139.2-139.2z"/>
<glyph unicode="" glyph-name="link" d="M440.236 324.234c-13.31 0-26.616 5.076-36.77 15.23-95.134 95.136-95.134 249.934 0 345.070l192 192c46.088 46.086 107.36 71.466 172.534 71.466s126.448-25.38 172.536-71.464c95.132-95.136 95.132-249.934 0-345.070l-87.766-87.766c-20.308-20.308-53.23-20.308-73.54 0-20.306 20.306-20.306 53.232 0 73.54l87.766 87.766c54.584 54.586 54.584 143.404 0 197.99-26.442 26.442-61.6 41.004-98.996 41.004s-72.552-14.562-98.996-41.006l-192-191.998c-54.586-54.586-54.586-143.406 0-197.992 20.308-20.306 20.306-53.232 0-73.54-10.15-10.152-23.462-15.23-36.768-15.23zM256-52c-65.176 0-126.45 25.38-172.534 71.464-95.134 95.136-95.134 249.934 0 345.070l87.764 87.764c20.308 20.306 53.234 20.306 73.54 0 20.308-20.306 20.308-53.232 0-73.54l-87.764-87.764c-54.586-54.586-54.586-143.406 0-197.992 26.44-26.44 61.598-41.002 98.994-41.002s72.552 14.562 98.998 41.006l192 191.998c54.584 54.586 54.584 143.406 0 197.992-20.308 20.308-20.306 53.232 0 73.54 20.306 20.306 53.232 20.306 73.54-0.002 95.132-95.134 95.132-249.932 0.002-345.068l-192.002-192c-46.090-46.088-107.364-71.466-172.538-71.466z"/>
<glyph unicode="" glyph-name="eye" d="M510.632 120.643v0c-216.785 0.346-405.283 121.117-502.207 298.98l-1.497 3.001c-4.361 7.849-6.928 17.214-6.928 27.178s2.567 19.329 7.076 27.469l-0.148-0.291c97.587 178.975 284.37 298.377 499.041 298.377 1.64 0 3.277-0.007 4.913-0.021l-0.25 0.002c205.663-5.098 383.993-117.425 481.707-282.994l1.463-2.68c30.198-51.337 25.367-60.396 21.139-68.852v0c-98.845-180.111-287.208-300.17-503.613-300.17-0.244 0-0.489 0-0.733 0.001h0.038zM505.196 724.605c-195.113-2.42-363.923-112.68-449.806-273.832l-1.354-2.783c87.987-165.588 259.325-276.463 456.574-276.615h0.021c0.52-0.002 1.137-0.003 1.753-0.003 193.499 0 362.37 105.441 452.291 262.001l1.343 2.537c-87.44 167.654-257.389 281.603-454.531 288.068l-0.856 0.022zM510.632 241.435c-114.077 0-206.555 92.478-206.555 206.555s92.478 206.555 206.555 206.555c114.077 0 206.555-92.478 206.555-206.555v0c-0.342-113.939-92.616-206.212-206.522-206.555h-0.033zM510.632 603.812c-86.059 0-155.822-69.764-155.822-155.822s69.764-155.822 155.822-155.822c86.059 0 155.822 69.764 155.822 155.822v0c0 86.059-69.764 155.822-155.822 155.822v0zM510.632 362.227c-47.365 0-85.763 38.397-85.763 85.763s38.397 85.763 85.763 85.763c47.365 0 85.763-38.397 85.763-85.763v0c-0.34-47.228-38.535-85.423-85.73-85.762h-0.033zM510.632 483.020c-19.347 0-35.030-15.684-35.030-35.030s15.684-35.030 35.030-35.030c19.347 0 35.030 15.684 35.030 35.030v0c0 19.347-15.684 35.030-35.030 35.030v0z"/>
<glyph unicode="" glyph-name="cross" d="M1014.662 137.34c-0.004 0.004-0.008 0.008-0.012 0.010l-310.644 310.65 310.644 310.65c0.004 0.004 0.008 0.006 0.012 0.010 3.344 3.346 5.762 7.254 7.312 11.416 4.246 11.376 1.824 24.682-7.324 33.83l-146.746 146.746c-9.148 9.146-22.45 11.566-33.828 7.32-4.16-1.55-8.070-3.968-11.418-7.31 0-0.004-0.004-0.006-0.008-0.010l-310.648-310.652-310.648 310.65c-0.004 0.004-0.006 0.006-0.010 0.010-3.346 3.342-7.254 5.76-11.414 7.31-11.38 4.248-24.682 1.826-33.83-7.32l-146.748-146.748c-9.148-9.148-11.568-22.452-7.322-33.828 1.552-4.16 3.97-8.072 7.312-11.416 0.004-0.002 0.006-0.006 0.010-0.010l310.65-310.648-310.65-310.652c-0.002-0.004-0.006-0.006-0.008-0.010-3.342-3.346-5.76-7.254-7.314-11.414-4.248-11.376-1.826-24.682 7.322-33.83l146.748-146.746c9.15-9.148 22.452-11.568 33.83-7.322 4.16 1.552 8.070 3.97 11.416 7.312 0.002 0.004 0.006 0.006 0.010 0.010l310.648 310.65 310.648-310.65c0.004-0.002 0.008-0.006 0.012-0.008 3.348-3.344 7.254-5.762 11.414-7.314 11.378-4.246 24.684-1.826 33.828 7.322l146.746 146.748c9.148 9.148 11.57 22.454 7.324 33.83-1.552 4.16-3.97 8.068-7.314 11.414z"/>
<glyph unicode="" glyph-name="checkmark" d="M864 832l-480-480-224 224-160-160 384-384 640 640z"/>
<glyph unicode="" glyph-name="arrow-up" horiz-adv-x="1396" d="M350.045 623.128c-14.388-13.901-14.388-37.038 0-51.425 13.901-13.901 37.038-13.901 50.907 0l260.755 260.755v-860.457c0.033-20.058 15.975-36.001 36.034-36.001s36.519 15.943 36.519 36.001v860.457l260.269-260.755c14.388-13.901 37.557-13.901 51.425 0 14.388 14.388 14.388 37.557 0 51.425l-322.485 322.485c-13.901 14.388-37.038 14.388-50.907 0l-322.517-322.485z"/>
<glyph unicode="" glyph-name="facebook" d="M928 960h-832c-52.8 0-96-43.2-96-96v-832c0-52.8 43.2-96 96-96h416v448h-128v128h128v64c0 105.8 86.2 192 192 192h128v-128h-128c-35.2 0-64-28.8-64-64v-64h192l-32-128h-160v-448h288c52.8 0 96 43.2 96 96v832c0 52.8-43.2 96-96 96z"/>
<glyph unicode="" glyph-name="twitter" d="M1024 733.6c-37.6-16.8-78.2-28-120.6-33 43.4 26 76.6 67.2 92.4 116.2-40.6-24-85.6-41.6-133.4-51-38.4 40.8-93 66.2-153.4 66.2-116 0-210-94-210-210 0-16.4 1.8-32.4 5.4-47.8-174.6 8.8-329.4 92.4-433 219.6-18-31-28.4-67.2-28.4-105.6 0-72.8 37-137.2 93.4-174.8-34.4 1-66.8 10.6-95.2 26.2 0-0.8 0-1.8 0-2.6 0-101.8 72.4-186.8 168.6-206-17.6-4.8-36.2-7.4-55.4-7.4-13.6 0-26.6 1.4-39.6 3.8 26.8-83.4 104.4-144.2 196.2-146-72-56.4-162.4-90-261-90-17 0-33.6 1-50.2 3 93.2-59.8 203.6-94.4 322.2-94.4 386.4 0 597.8 320.2 597.8 597.8 0 9.2-0.2 18.2-0.6 27.2 41 29.4 76.6 66.4 104.8 108.6z"/>
<glyph unicode="" glyph-name="youtube" d="M1013.8 652.8c0 0-10 70.6-40.8 101.6-39 40.8-82.6 41-102.6 43.4-143.2 10.4-358.2 10.4-358.2 10.4h-0.4c0 0-215 0-358.2-10.4-20-2.4-63.6-2.6-102.6-43.4-30.8-31-40.6-101.6-40.6-101.6s-10.2-82.8-10.2-165.8v-77.6c0-82.8 10.2-165.8 10.2-165.8s10-70.6 40.6-101.6c39-40.8 90.2-39.4 113-43.8 82-7.8 348.2-10.2 348.2-10.2s215.2 0.4 358.4 10.6c20 2.4 63.6 2.6 102.6 43.4 30.8 31 40.8 101.6 40.8 101.6s10.2 82.8 10.2 165.8v77.6c-0.2 82.8-10.4 165.8-10.4 165.8zM406.2 315.2v287.8l276.6-144.4-276.6-143.4z"/>
<glyph unicode="" glyph-name="linkedin" d="M384 576h177.106v-90.782h2.532c24.64 44.194 84.958 90.782 174.842 90.782 186.946 0 221.52-116.376 221.52-267.734v-308.266h-184.61v273.278c0 65.184-1.334 149.026-96.028 149.026-96.148 0-110.82-70.986-110.82-144.292v-278.012h-184.542v576zM64 576h192v-576h-192v576zM256 736c0-53.019-42.981-96-96-96s-96 42.981-96 96c0 53.019 42.981 96 96 96s96-42.981 96-96z"/>
</font>
</defs>
</svg>
